<?xml version="1.0" encoding="UTF-8"?>
<svg width="1288" height="211" version="1.1" viewBox="0 0 1288 211" xmlns="http://www.w3.org/2000/svg">
 <!-- svg-source:excalidraw -->
 <defs>
  <style>@font-face {
        font-family: "Virgil";
        src: url("https://excalidraw.com/Virgil.woff2");
      }
      @font-face {
        font-family: "Cascadia";
        src: url("https://excalidraw.com/Cascadia.woff2");
      }</style>
 </defs>
 <g transform="translate(10 62) rotate(0 109 54)">
  <path d="m94.281 0.66717c13.923-1.7161 32.271-0.33565 46.503 1.7048 14.233 2.0404 27.792 5.7553 38.893 10.538 11.1 4.7826 21.375 11.273 27.708 18.158 6.3329 6.8842 10.209 15.819 10.289 23.147 0.079911 7.3283-3.7785 14.293-9.8098 20.822s-15.289 13.333-26.378 18.354c-11.089 5.0216-25.731 9.3372-40.158 11.776-14.427 2.4384-31.622 3.7339-46.404 2.8547-14.782-0.87921-29.56-4.1618-42.289-8.13-12.729-3.9681-25.722-9.6704-34.085-15.679-8.3629-6.0085-13.524-12.955-16.093-20.372-2.5687-7.4167-2.77-16.878 0.68039-24.128 3.4504-7.2502 10.665-13.795 20.022-19.373 9.357-5.5786 22.512-10.617 36.12-14.098 13.608-3.4807 36.403-6.0136 45.529-6.7863 9.1253-0.77273 9.3761 1.0397 9.2234 2.1499m-7.4659-2.0386c13.946-1.1534 29.472 1.5983 43.405 4.6625s29.951 8.3859 40.193 13.723 16.57 11.388 21.261 18.299c4.6905 6.9109 8.4336 15.85 6.8822 23.166s-8.3577 14.504-16.19 20.73c-7.8327 6.2261-19.084 12.157-30.806 16.627-11.721 4.4698-24.829 8.6917-39.522 10.192-14.693 1.5005-33.857 0.48084-48.637-1.1892-14.78-1.6701-28.395-4.269-40.044-8.8312s-22.751-12.215-29.85-18.542c-7.0987-6.3269-11.766-12.084-12.743-19.42-0.97662-7.3353 1.9087-17.35 6.8829-24.592 4.9741-7.2427 12.657-13.848 22.962-18.864s26.393-8.8011 38.87-11.232 29.999-3.0462 35.992-3.3535-0.26084 0.86998-0.036676 1.5096" fill="none" stroke="#000"/>
 </g>
 <g transform="translate(97.5 103) rotate(0 21.5 13)">
  <text x="21.5" y="18" fill="#000000" font-family="Virgil, Segoe UI Emoji" font-size="20px" text-anchor="middle" style="white-space:pre">User</text>
 </g>
 <g transform="translate(894 10) rotate(0 192 92)">
  <path d="m118.52 7.4253c16.603-4.8377 40.388-6.8307 60.403-7.6966 20.015-0.86585 40.319 0.052245 59.685 2.5014 19.366 2.4492 39.469 6.905 56.51 12.194s32.921 11.953 45.735 19.539c12.814 7.5852 23.898 16.762 31.151 25.973 7.2535 9.2111 11.698 19.624 12.369 29.294 0.67191 9.6695-2.7435 19.613-8.338 28.723s-13.641 17.936-25.229 25.938c-11.588 8.0028-28.17 16.279-44.297 22.079-16.127 5.7991-33.594 9.7965-52.465 12.716-18.871 2.9194-40.395 4.7367-60.758 4.8003-20.364 0.063568-42.021-1.6014-61.425-4.4189s-38.948-6.9321-54.999-12.486c-16.051-5.554-29.69-12.716-41.307-20.838-11.618-8.1223-22.428-18.556-28.398-27.896-5.9705-9.3401-8.2748-18.589-7.4246-28.145 0.85016-9.556 5.5003-19.861 12.526-29.191s17.269-19.017 29.626-26.787 29.547-14.927 44.516-19.833c14.97-4.9059 35.653-8.2304 45.302-9.6026 9.6484-1.3722 11.766-0.23661 12.589 1.3694m17.74-3.2245c18.558-2.6383 39.961-1.1017 59.864 0.092812 19.903 1.1945 41.492 2.705 59.555 7.0742s34.71 12.304 48.82 19.141c14.111 6.8365 27.194 13.22 35.844 21.878 8.6501 8.6579 13.799 20.18 16.057 30.07 2.2581 9.8894 1.5602 19.667-2.5081 29.267s-11.924 19.952-21.901 28.332c-9.9769 8.3798-23.132 15.606-37.96 21.947-14.828 6.3414-32.751 11.995-51.01 16.101-18.258 4.1063-38.309 7.7506-58.539 8.5363-20.231 0.78568-43.269-1.2758-62.844-3.8222-19.574-2.5464-37.602-6.5715-54.601-11.456-17-4.8847-34.302-10.527-47.396-17.852s-23.873-17.004-31.172-26.098c-7.2989-9.0936-11.262-18.892-12.622-28.464-1.3599-9.5722-0.76217-19.655 4.4628-28.969 5.225-9.3145 15.613-18.865 26.887-26.918 11.274-8.0531 25.268-15.205 40.754-21.401 15.486-6.1962 37.522-12.658 52.165-15.776 14.642-3.118 29.608-2.6498 35.688-2.9319 6.0803-0.28209 0.53276-0.51691 0.79385 1.2394" fill="none" stroke="#000"/>
 </g>
 <g transform="translate(982.5 89) rotate(0 103.5 13)">
  <text x="103.5" y="18" fill="#000000" font-family="Virgil, Segoe UI Emoji" font-size="20px" text-anchor="middle" style="white-space:pre">The Filecoin Network</text>
 </g>
 <g transform="translate(459 25) rotate(0 103 88)">
  <path d="m-0.69045-1.0423c73.806-0.34091 147.36 1.2887 206.86 1.0304m-206.12 0.41148c50.898 0.15497 103.41 0.65875 206.4-0.82122m1.3121 1.044c-1.5217 40.181 0.19738 81.957 0.11647 174m-2.5789-174.12c3.0248 56.872 2.6782 114.04 0.87063 176.1m-0.050701 0.64236c-60.325-1.941-120.83-2.617-204.51-2.6915m203.92 2.1737c-53.082 1.4143-106.89 0.651-204.92-0.29614m-2.5004 1.4344c-0.61345-42.406 1.8365-84.318 0.40691-177.82m2.1386 176.71c-0.16368-52.922-0.90619-103.99-1.5221-176.41" fill="none" stroke="#000"/>
 </g>
 <g transform="translate(538 100) rotate(0 24 13)">
  <text x="24" y="18" fill="#000000" font-family="Virgil, Segoe UI Emoji" font-size="20px" text-anchor="middle" style="white-space:pre">Miner</text>
 </g>
 <g transform="translate(235 120) rotate(0 109.56 .66262)" fill="none" stroke="#000">
  <path d="m-0.58041 0.55044c36.769-0.10629 183.51-0.26904 220.28-0.55436m-218.38-0.20226c36.665 0.042276 180.95 1.7789 217.28 1.7376"/>
  <path d="m191.26 11.115c5.3456-1.5532 9.739-1.9715 28.174-9.7326m-28.156 11.193c4.0932-4.1919 10.174-5.7203 28.186-10.309"/>
  <path d="m191.38-9.4061c5.4253 3.0384 9.7901 7.2123 28.046 10.788m-28.028-9.3277c4.1784 0.17848 10.232 3.0199 28.058 10.211"/>
 </g>
 <g transform="translate(890 110) rotate(0 -108.43 .12311)" fill="none" stroke="#000">
  <path d="m-1.1656-0.085544c-36.301-0.10996-179.73-0.045943-215.74 0.010037m217.33-1.1006c-36.441 0.036673-181.37 2.1191-217.7 2.5983"/>
  <path d="m-189.37-7.3927c-10.452 3.2022-20.429 5.9346-28.485 7.7764m28.449-10.06c-8.8307 2.6672-16.834 6.5766-28.4 10.525"/>
  <path d="m-189.09 13.127c-10.657-4.497-20.739-9.4611-28.765-12.743m28.729 10.459c-8.9801-3.5387-17.068-5.8344-28.679-9.9945"/>
 </g>
 <g transform="translate(734 73) rotate(0 65 13)">
  <text y="18" fill="#000000" font-family="Virgil, Segoe UI Emoji" font-size="20px" style="white-space:pre">Pays 0.5 FIL</text>
 </g>
 <g transform="translate(275 87) rotate(0 57.5 13)">
  <text y="18" fill="#000000" font-family="Virgil, Segoe UI Emoji" font-size="20px" style="white-space:pre">Store 10GB</text>
 </g>
</svg>
