<?xml version="1.0" encoding="UTF-8"?>
<svg width="1288" height="275.5" version="1.1" viewBox="0 0 1288 275.5" xmlns="http://www.w3.org/2000/svg">
 <!-- svg-source:excalidraw -->
 <defs>
  <style>@font-face {
        font-family: "Virgil";
        src: url("https://excalidraw.com/Virgil.woff2");
      }
      @font-face {
        font-family: "Cascadia";
        src: url("https://excalidraw.com/Cascadia.woff2");
      }</style>
 </defs>
 <g transform="translate(10 62) rotate(0 109 54)">
  <path d="m87.419 0.47349c13.524-2.351 31.248-1.7636 45.615 0.099201s28.578 6.6679 40.586 11.077 24.003 8.9924 31.463 15.379c7.4606 6.3867 12.373 15.353 13.301 22.941 0.92721 7.5877-2.4623 15.627-7.7373 22.585s-13.673 13.873-23.913 19.166-23.523 10.039-37.525 12.593c-14.001 2.5536-31.444 3.2439-46.482 2.7288-15.038-0.51508-30.696-2.6853-43.745-5.8193-13.049-3.1341-25.228-7.397-34.548-12.985-9.3196-5.588-17.699-13.223-21.37-20.543-3.6711-7.3205-3.3234-16.036-0.65668-23.38 2.6668-7.3433 8.424-14.733 16.657-20.68 8.2333-5.9474 19.856-10.964 32.743-15.005s35.674-7.9049 44.577-9.2406c8.9031-1.3357 8.6239 0.027432 8.8416 1.2261m28.433 0.77731c14.24 0.85746 30.78 5.3173 42.647 9.8312s21.886 10.549 28.555 17.252c6.6693 6.7029 10.276 15.747 11.46 22.965s0.40262 13.34-4.3558 20.347c-4.7584 7.007-13.32 16.12-24.195 21.695-10.874 5.5753-26.928 9.2779-41.052 11.756-14.124 2.4783-28.813 3.8483-43.69 3.1136-14.877-0.73471-32.047-3.9188-45.571-7.5219-13.525-3.6031-26.569-8.2445-35.576-14.097-9.0067-5.8522-15.205-14.028-18.465-21.017-3.2601-6.9885-4.0066-13.539-1.0958-20.914 2.9108-7.3751 10.048-17.062 18.56-23.336 8.5124-6.2745 19.952-10.96 32.514-14.311 12.562-3.3514 29.613-4.9521 42.857-5.7969 13.244-0.84481 30.652 0.6172 36.609 0.72807 5.9568 0.11087-0.62455-0.64752-0.86855-0.062862" fill="none" stroke="#000"/>
 </g>
 <g transform="translate(97.5 103) rotate(0 21.5 13)">
  <text x="21.5" y="18" fill="#000000" font-family="Virgil, Segoe UI Emoji" font-size="20px" text-anchor="middle" style="white-space:pre">User</text>
 </g>
 <g transform="translate(894 10) rotate(0 192 92)">
  <path d="m181.88-0.5553c18.734-1.6992 40.346 2.1704 59.851 4.6776s40.128 5.1177 57.177 10.366c17.048 5.2479 32.941 13.303 45.114 21.122 12.173 7.8191 21.354 16.698 27.924 25.792 6.5693 9.0945 10.882 19.132 11.492 28.775 0.61074 9.6424-1.7877 20.006-7.8279 29.08-6.0402 9.0739-16.582 17.648-28.413 25.364-11.831 7.7158-26.52 14.992-42.573 20.931-16.053 5.9392-34.51 11.559-53.743 14.704-19.233 3.1454-41.471 4.4251-61.657 4.1679-20.186-0.25714-40.421-2.4963-59.461-5.7108s-38.531-7.8499-54.78-13.576c-16.249-5.7263-31.467-12.571-42.714-20.782-11.247-8.2108-19.352-18.95-24.77-28.483-5.4178-9.5329-8.6943-19.354-7.7371-28.715 0.95715-9.3604 6.0563-18.604 13.48-27.447 7.4238-8.8432 18.306-17.994 31.063-25.612s28.453-14.962 45.48-20.096 38.635-8.3609 56.68-10.709c18.045-2.3482 40.309-3.0839 51.589-3.3803s16.083-0.046895 16.094 1.6019m-91.614 5.2971c16.711-4.7963 41.588-5.5712 61.83-6.2738 20.242-0.70258 40.484-0.45294 59.622 2.0583 19.137 2.5113 38.341 7.5507 55.202 13.009 16.861 5.4585 33.488 11.821 45.965 19.742 12.477 7.9209 22.253 18.718 28.898 27.784 6.645 9.0653 10.898 17.141 10.972 26.608 0.073764 9.4671-3.9919 20.569-10.529 30.194-6.537 9.6252-16.629 19.589-28.693 27.557-12.064 7.9678-27.165 14.903-43.692 20.25-16.528 5.3474-36.324 9.3085-55.474 11.834-19.15 2.5257-39.523 3.6688-59.427 3.3203-19.904-0.34857-40.956-2.1421-59.999-5.4117s-38.151-8.3-54.258-14.206c-16.107-5.9057-31.47-13.097-42.385-21.228-10.915-8.1316-18.077-18.505-23.105-27.561-5.0277-9.0563-8.3604-17.232-7.0615-26.777 1.2989-9.5451 7.1781-21.261 14.855-30.494 7.6768-9.2328 18.554-17.376 31.206-24.903 12.652-7.5268 31.632-15.77 44.709-20.258 13.077-4.4882 28.285-6.0201 33.752-6.6716 5.4677-0.6515-1.9467 1.2373-0.9463 2.7626" fill="none" stroke="#000"/>
 </g>
 <g transform="translate(982.5 89) rotate(0 103.5 13)">
  <text x="103.5" y="18" fill="#000000" font-family="Virgil, Segoe UI Emoji" font-size="20px" text-anchor="middle" style="white-space:pre">The Filecoin Network</text>
 </g>
 <g transform="translate(459 25) rotate(0 103 88)">
  <path d="m1.5384-1.2171c52.669 0.1799 103.82 3.0211 205.61-0.36165m-206.9 1.1151c76.657 2.3029 153.41 1.2774 204.96 0.16363m0.24757 1.1636c3.1697 36.723 1.6437 75.476-0.84538 176.76m0.90412-177.26c-0.42121 59.077-0.64375 117.43 0.41863 175.63m0.064501-1.6827c-74.295 2.4581-152.47 3.1472-204.29 0.38157m203.88 0.75813c-72.761 0.86377-144.44 0.56292-205.35 1.1017m-0.67585-1.8386c3.545-64.762 3.0541-130.11-0.14233-174.56m0.46072 175.21c-1.0832-39.895 0.2595-80.567 0.15942-174.54" fill="none" stroke="#000"/>
 </g>
 <g transform="translate(538 100) rotate(0 24 13)">
  <text x="24" y="18" fill="#000000" font-family="Virgil, Segoe UI Emoji" font-size="20px" text-anchor="middle" style="white-space:pre">Miner</text>
 </g>
 <g transform="translate(235 120) rotate(0 110.31 -.067392)" fill="none" stroke="#000">
  <path d="m-0.82055 0.64216c36.549-0.30235 183-1.4407 219.98-1.4191m-218.21 0.71063c36.94 0.35328 183.83 0.60219 220.49 0.4189"/>
  <path d="m194.33 9.2473c5.6871 0.41273 16.409-6.1318 28.565-8.3856m-29.504 9.9502c5.789-3.1451 10.666-4.6399 27.208-9.7812"/>
  <path d="m194.31-11.274c5.8704 6.3413 16.598 5.7252 28.586 12.136m-29.525-10.571c5.8505 1.1224 10.732 3.895 27.228 10.74"/>
 </g>
 <g transform="translate(890 110) rotate(0 -109.07 .25106)" fill="none" stroke="#000">
  <path d="m0.64216-0.83654c-36.636 0.31658-183.11 1.9534-219.42 1.9155m218.3 0.25974c-36.342 0.077152-179.81-1.5418-215.99-1.8159"/>
  <path d="m-189.58-11.765c-7.8067 6.5938-22.31 10.625-26.383 9.4472m27.948-8.0634c-10.48 2.3314-19.11 5.6604-27.779 10.489"/>
  <path d="m-189.77 8.7549c-7.5914-1.3369-22.019-5.2355-26.189-11.073m27.754 12.457c-10.309-4.3976-18.876-7.7973-27.585-10.031"/>
 </g>
 <g transform="translate(734 73) rotate(0 66 13)">
  <text y="18" fill="#000000" font-family="Virgil, Segoe UI Emoji" font-size="20px" style="white-space:pre">Pays 5.0 FIL</text>
 </g>
 <g transform="translate(275 87) rotate(0 57.5 13)">
  <text y="18" fill="#000000" font-family="Virgil, Segoe UI Emoji" font-size="20px" style="white-space:pre">Store 10GB</text>
 </g>
 <g transform="translate(211 194.5) rotate(0 41.5 35.5)">
  <path d="m21.988 4.5941c6.9039-3.274 18.567-4.6306 26.567-3.6414 8.0002 0.98915 15.825 4.8487 21.434 9.5763 5.6093 4.7276 10.72 11.784 12.222 18.79 1.5021 7.0053 0.47499 16.983-3.209 23.242s-11.383 11.456-18.895 14.315c-7.512 2.8591-18.005 3.8452-26.177 2.8395-8.1721-1.0057-17.171-3.7442-22.856-8.8736-5.6849-5.1293-10.248-14.625-11.254-21.902-1.0057-7.2775 0.53308-15.436 5.2195-21.763 4.6864-6.3264 17.775-13.518 22.899-16.196 5.1238-2.6782 7.6118-0.59508 7.8439 0.12661" fill="none" stroke="#000" stroke-dasharray="3 6" stroke-width="1.5"/>
 </g>
 <g transform="translate(224.5 205.5) rotate(0 28.5 26)" font-family="Virgil, Segoe UI Emoji" font-size="20px" text-anchor="middle">
  <text x="28.5" y="18" style="white-space:pre">Data</text>
  <text x="28.5" y="44" style="white-space:pre">Cap</text>
 </g>
 <g transform="translate(179 164.5) rotate(0 19.644 16.756)">
  <path d="m-0.68427 0.81117c6.58 5.3682 33.841 26.873 40.657 31.89" fill="none" stroke="#000" stroke-dasharray="3 6" stroke-width="1.5"/>
 </g>
 <g transform="translate(304 227.5) rotate(0 73.142 -34.024)" fill="none" stroke="#000" stroke-width="1.5">
  <path d="m1.1914-0.9247c24.146-11.298 119.63-55.337 143.9-66.2" stroke-dasharray="3 6"/>
  <path d="m122.15-47.614c8.0206-4.0265 16.527-10.927 21.448-17.765" stroke-dasharray="3 4"/>
  <path d="m113.64-66.289c10.827 1.8248 22.037 0.8605 29.955 0.91044" stroke-dasharray="3 4"/>
 </g>
 <g transform="translate(569.5 123) rotate(0 41.5 35.5)">
  <path d="m54.733 1.4625c7.4415 1.4602 16.035 7.34 20.862 13.17 4.8268 5.8304 8.222 14.623 8.099 21.812-0.12291 7.1891-3.822 15.658-8.8365 21.322s-13.446 10.837-21.25 12.665c-7.8045 1.8274-17.929 0.92962-25.577-1.7004-7.6482-2.63-15.644-8.3091-20.312-14.08-4.6684-5.7705-8.1004-13.472-7.6983-20.543 0.40209-7.0708 5.0802-16.275 10.111-21.882 5.0306-5.6067 11.609-10.537 20.073-11.759 8.4635-1.222 24.605 3.0472 30.708 4.4265 6.1037 1.3792 6.179 3.5589 5.9136 3.849" fill="none" stroke="#000" stroke-dasharray="3 6" stroke-width="1.5"/>
 </g>
 <g transform="translate(583 134) rotate(0 28.5 26)" font-family="Virgil, Segoe UI Emoji" font-size="20px" text-anchor="middle">
  <text x="28.5" y="18" style="white-space:pre">Data</text>
  <text x="28.5" y="44" style="white-space:pre">Cap</text>
 </g>
</svg>
