<?xml version="1.0" encoding="UTF-8"?>
<svg width="908" height="400" viewBox="0 0 908 400" xmlns="http://www.w3.org/2000/svg">
 <g transform="translate(100 100)" fill="none" fill-rule="evenodd">
  <g transform="translate(-.000643 .34364)">
   <path d="m99.72 199.66c-55.04 0.21102-99.969-44.884-99.72-100.3 0.25061-54.782 44.961-99.687 100.37-99.357 54.621 0.32614 99.481 45.089 99.054 100.67-0.41913 54.54-44.826 99.162-99.708 98.985" fill="#0090ff"/>
   <path d="m112.11 91.76c8.6951 1.2305 17.194 2.4305 25.956 3.6705 0.73729-2.6403 1.3641-4.8914 2.0823-7.465-9.0113-1.3354-17.611-2.6098-26.845-3.9776 3.1054-11.004 5.7878-21.525 9.1428-31.831 1.105-3.3919 3.5741-6.576 6.0908-9.2105 3.3016-3.453 7.8702-2.688 10.667 1.1065 1.1717 1.5891 2.2747 3.2699 3.6788 4.6301 1.7927 1.7341 4.4352 2.5773 6.2355 0.889 1.1831-1.1084 1.145-3.7163 1.2555-5.6774 0.043819-0.78789-0.88399-1.7151-1.526-2.4419-3.1263-3.5446-7.3501-4.7999-11.81-4.9868-9.9506-0.41779-17.091 4.6625-22.698 12.341-5.5554 7.6099-7.9921 16.557-10.644 25.4-0.77349 2.5812-1.4365 5.1967-2.2138 8.0296-9.6877-1.4041-18.981-2.751-28.545-4.1341-0.33912 2.585-0.65537 5.0097-0.99258 7.5851 9.4686 1.4594 18.528 2.854 27.889 4.2962-1.2536 5.2882-2.4214 10.224-3.6217 15.287-9.1828-1.2858-17.889-2.501-26.655-3.7296-0.3715 2.8349-0.65156 4.9773-0.98306 7.4993 8.8037 1.3469 17.291 2.6441 25.836 3.9509 0 0.96531 0.10478 1.5262-0.017146 2.0356-2.7263 11.635-5.262 23.322-8.3198 34.868-1.4612 5.5057-3.8122 10.821-8.3826 14.69-3.7627 3.184-7.8968 2.6517-10.726-1.2992-1.2784-1.7799-2.3452-3.8937-4.0332-5.1413-1.2326-0.9138-3.976-1.4632-4.881-0.73066-1.3412 1.0874-2.3128 3.4931-2.1985 5.2596 0.097162 1.5662 1.6022 3.3977 2.9835 4.466 4.6543 3.5884 10.132 4.1093 15.681 3.0161 9.2952-1.8333 15.851-7.6405 19.915-15.853 3.193-6.4558 5.584-13.35 7.8435-20.212 2.0461-6.2135 3.435-12.644 5.1687-19.199 9.1295 1.3259 18.078 2.625 27.211 3.9509 0.75444-2.6098 1.4346-4.9716 2.1681-7.5146-9.5562-1.406-18.674-2.751-27.87-4.1054 1.105-5.4046 2.088-10.218 3.1587-15.46" fill="#fff"/>
  </g>
  <path d="m270.19 143.51v-39.05h43.574v-12.813h-43.574v-23.674h46.26v-12.935h-61.761v88.473zm70.845-73.829v-14.644h-14.525v14.644zm0 73.829v-65.653h-14.525v65.653zm30.859 0v-88.473h-14.525v88.473zm45.811 1.5864c16.844 0 26.852-10.739 29.782-21.234h-14.281c-2.5632 6.2236-8.4219 9.1524-16.111 9.1524-8.2999 0-16.844-5.9796-17.82-18.183h48.945c1.3426-21.966-11.351-38.44-31.491-38.44-18.553 0-32.223 14.034-32.223 33.803 0 18.915 12.084 34.901 33.199 34.901zm15.745-40.881h-34.176c1.3426-12.325 10.619-16.474 17.454-16.474 8.544 0 16.356 6.2236 16.722 16.474zm56.125 40.881c14.037 0 27.585-8.6643 30.514-24.04h-14.159c-1.9529 8.7863-8.9101 11.959-16.111 11.959-8.544 0-16.844-6.7118-16.844-22.332 0-15.498 8.0557-22.21 17.21-22.21 7.9337 0 13.914 4.8813 15.257 11.837h14.159c-2.5632-14.522-15.013-23.918-29.416-23.918-19.651 0-32.223 14.888-32.223 34.413s12.572 34.291 31.613 34.291zm71.358 0c15.989 0 32.345-10.495 32.345-34.291 0-23.674-16.356-34.413-32.345-34.413s-32.345 10.739-32.345 34.413c0 23.796 16.356 34.291 32.345 34.291zm0-11.837c-9.2763 0-17.332-7.1999-17.332-22.454 0-15.132 8.0557-22.576 17.332-22.576s17.332 7.444 17.332 22.576c0 15.254-8.0558 22.454-17.332 22.454zm59.823-63.579v-14.644h-14.525v14.644zm0 73.829v-65.653h-14.525v65.653zm30.859 0v-34.901c0-11.837 4.0279-20.379 15.257-20.379 11.229 0 12.45 8.7863 12.45 17.573v37.708h14.525v-41.247c0-15.62-6.469-25.871-22.336-25.871-9.2763 0-16.111 3.783-19.895 10.617v-9.1524h-14.525v65.653z" fill="#000" fill-rule="nonzero"/>
 </g>
</svg>
