<?xml version="1.0" encoding="UTF-8"?>
<svg width="908" height="400" viewBox="0 0 908 400" xmlns="http://www.w3.org/2000/svg">
 <g transform="translate(100 100)" fill="none" fill-rule="evenodd">
  <g transform="translate(-.000643 .34364)">
   <path d="m99.7 199.66c-55.029 0.21102-99.948-44.884-99.7-100.3 0.25056-54.782 44.951-99.687 100.35-99.357 54.609 0.32614 99.461 45.089 99.034 100.67-0.41905 54.54-44.817 99.162-99.688 98.985" fill="#0090ff"/>
   <path d="m112.08 91.76c8.6933 1.2305 17.19 2.4305 25.95 3.6705 0.73714-2.6403 1.3638-4.8914 2.0819-7.465-9.0095-1.3354-17.608-2.6098-26.84-3.9776 3.1048-11.004 5.7867-21.525 9.1409-31.831 1.1048-3.3919 3.5733-6.576 6.0895-9.2105 3.301-3.453 7.8686-2.688 10.665 1.1065 1.1714 1.5891 2.2743 3.2699 3.6781 4.6301 1.7924 1.7341 4.4343 2.5773 6.2343 0.889 1.1829-1.1084 1.1448-3.7163 1.2552-5.6774 0.043809-0.78789-0.88381-1.7151-1.5257-2.4419-3.1257-3.5446-7.3486-4.7999-11.808-4.9868-9.9486-0.41779-17.088 4.6625-22.693 12.341-5.5543 7.6099-7.9905 16.557-10.642 25.4-0.77333 2.5812-1.4362 5.1967-2.2133 8.0296-9.6857-1.4041-18.977-2.751-28.539-4.1341-0.33905 2.585-0.65524 5.0097-0.99238 7.5851 9.4667 1.4594 18.524 2.854 27.884 4.2962-1.2533 5.2882-2.421 10.224-3.6209 15.287-9.1809-1.2858-17.886-2.501-26.65-3.7296-0.37143 2.8349-0.65143 4.9773-0.98286 7.4993 8.8019 1.3469 17.288 2.6441 25.83 3.9509 0 0.96531 0.10476 1.5262-0.017143 2.0356-2.7257 11.635-5.2609 23.322-8.3181 34.868-1.461 5.5057-3.8114 10.821-8.3809 14.69-3.7619 3.184-7.8952 2.6517-10.724-1.2992-1.2781-1.7799-2.3448-3.8937-4.0324-5.1413-1.2324-0.9138-3.9752-1.4632-4.88-0.73066-1.341 1.0874-2.3124 3.4931-2.1981 5.2596 0.097143 1.5662 1.6019 3.3977 2.9829 4.466 4.6533 3.5884 10.13 4.1093 15.678 3.0161 9.2933-1.8333 15.848-7.6405 19.91-15.853 3.1924-6.4558 5.5829-13.35 7.8419-20.212 2.0457-6.2135 3.4343-12.644 5.1676-19.199 9.1276 1.3259 18.074 2.625 27.206 3.9509 0.75429-2.6098 1.4343-4.9716 2.1676-7.5146-9.5543-1.406-18.67-2.751-27.865-4.1054 1.1048-5.4046 2.0876-10.218 3.1581-15.46" fill="#fff"/>
  </g>
  <path d="m270.14 143.51v-39.05h43.565v-12.813h-43.565v-23.674h46.25v-12.935h-61.748v88.473zm70.831-73.829v-14.644h-14.522v14.644zm0 73.829v-65.653h-14.522v65.653zm30.853 0v-88.473h-14.522v88.473zm45.802 1.5864c16.84 0 26.847-10.739 29.776-21.234h-14.278c-2.5627 6.2236-8.4202 9.1524-16.108 9.1524-8.2982 0-16.84-5.9796-17.817-18.183h48.935c1.3424-21.966-11.349-38.44-31.484-38.44-18.549 0-32.216 14.034-32.216 33.803 0 18.915 12.081 34.901 33.193 34.901zm15.742-40.881h-34.169c1.3424-12.325 10.617-16.474 17.451-16.474 8.5422 0 16.352 6.2236 16.718 16.474zm56.114 40.881c14.034 0 27.579-8.6643 30.508-24.04h-14.156c-1.9525 8.7863-8.9083 11.959-16.108 11.959-8.5422 0-16.84-6.7118-16.84-22.332 0-15.498 8.0541-22.21 17.207-22.21 7.9321 0 13.912 4.8813 15.254 11.837h14.156c-2.5627-14.522-15.01-23.918-29.41-23.918-19.647 0-32.216 14.888-32.216 34.413s12.569 34.291 31.606 34.291zm71.343 0c15.986 0 32.338-10.495 32.338-34.291 0-23.674-16.352-34.413-32.338-34.413s-32.338 10.739-32.338 34.413c0 23.796 16.352 34.291 32.338 34.291zm0-11.837c-9.2744 0-17.329-7.1999-17.329-22.454 0-15.132 8.0541-22.576 17.329-22.576s17.329 7.444 17.329 22.576c0 15.254-8.0541 22.454-17.329 22.454zm59.811-63.579v-14.644h-14.522v14.644zm0 73.829v-65.653h-14.522v65.653zm30.853 0v-34.901c0-11.837 4.0271-20.379 15.254-20.379s12.447 8.7863 12.447 17.573v37.708h14.522v-41.247c0-15.62-6.4677-25.871-22.332-25.871-9.2744 0-16.108 3.783-19.891 10.617v-9.1524h-14.522v65.653z" fill="#fff" fill-rule="nonzero"/>
 </g>
</svg>
