<svg height="400" viewBox="0 0 908 400" width="908" xmlns="http://www.w3.org/2000/svg"><g fill="none" fill-rule="evenodd" transform="translate(100 100)"><g transform="translate(-.000643 .343641)"><path d="m99.7202638 199.656338c-55.0397105.211016-99.96880336-44.88397-99.7202638-100.2997898.25060908-54.7824525 44.96061-99.68666507 100.373729-99.3565482 54.620578.32614319 99.481086 45.0891835 99.054333 100.670976-.419132 54.54017-44.826215 99.162039-99.7077982 98.985362" fill="#0090ff"/><path d="m112.105628 91.7601473c8.695093 1.2304876 17.193956 2.4304515 25.955729 3.6704777.737292-2.640302 1.364085-4.8914266 2.082326-7.4649581-9.011348-1.3354129-17.611183-2.6097783-26.845433-3.9776227 3.10539-11.0038022 5.787838-21.5249481 9.142803-31.8305202 1.104985-3.3919488 3.574056-6.5759547 6.090756-9.2105336 3.301621-3.4529962 7.870164-2.6879953 10.666921 1.106485 1.171665 1.5891414 2.274746 3.2698539 3.67884 4.6300673 1.792743 1.734129 4.435183 2.5773469 6.235547.8890034 1.183097-1.1083927 1.144994-3.7162633 1.255492-5.6774125.043819-.7878936-.883988-1.7150517-1.526023-2.4418979-3.126347-3.5445673-7.350059-4.7998555-11.810009-4.9868133-9.950585-.4177934-17.091078 4.6624988-22.697927 12.3411229-5.55541 7.6099458-7.992094 16.5572122-10.644059 25.3995533-.77349 2.5811624-1.436481 5.1966639-2.213781 8.029647-9.6876751-1.4040913-18.9809845-2.7509506-28.5448248-4.1340568-.3391162 2.5849779-.6553707 5.0097061-.9925818 7.5851453 9.4685829 1.4594155 18.5275592 2.8539681 27.8894538 4.2962141-1.253587 5.288235-2.4214424 10.2235398-3.6216853 15.2866618-9.1828108-1.285811-17.8893348-2.501037-26.6549183-3.729617-.3715038 2.834891-.6515604 4.977275-.9830561 7.499297 8.8036865 1.346859 17.2911185 2.644118 25.8357049 3.950915 0 .965312.1047831 1.526186-.0171463 2.03555-2.7262661 11.635262-5.2620174 23.322033-8.3197791 34.867631-1.4612481 5.505717-3.8122001 10.82066-8.3826488 14.689542-3.7626663 3.184006-7.8968363 2.651749-10.7259803-1.299166-1.278354-1.779915-2.3452366-3.893682-4.0331972-5.14134-1.2326304-.913804-3.9760428-1.463231-4.8809879-.730661-1.3412238 1.087407-2.312849 3.493058-2.1985401 5.259619.0971625 1.566248 1.602229 3.397672 2.9834609 4.466002 4.6542753 3.588445 10.1315743 4.109256 15.6812689 3.016126 9.2952145-1.833332 15.8508269-7.64047 19.9145065-15.853259 3.1930272-6.455768 5.583987-13.350314 7.843492-20.212428 2.046129-6.213486 3.434981-12.644453 5.168665-19.199422 9.129467 1.325874 18.077945 2.62504 27.211222 3.950914.754438-2.609778 1.434576-4.971551 2.168057-7.514559-9.556219-1.405999-18.674255-2.750951-27.870402-4.105441 1.104986-5.404607 2.088042-10.2178162 3.158735-15.4602657" fill="#fff"/></g><path d="m270.193306 143.510476v-39.05024h43.574279v-12.8133598h-43.574279v-23.674208h46.259529v-12.935392h-61.760743v88.4731998zm70.845224-73.8293598v-14.64384h-14.52476v14.64384zm0 73.8293598v-65.6532158h-14.52476v65.6532158zm30.859414 0v-88.4731998h-14.524759v88.4731998zm45.811373 1.586416c16.843839 0 26.852497-10.738816 29.78186-21.233568h-14.280646c-2.563193 6.223632-8.421919 9.1524-16.111498 9.1524-8.299863 0-16.843839-5.979568-17.820293-18.182768h48.944778c1.342625-21.9657598-11.351283-38.4400798-31.490655-38.4400798-18.552634 0-32.222996 14.03368-32.222996 33.8028638 0 18.91496 12.083623 34.901152 33.19945 34.901152zm15.745328-40.88072h-34.175905c1.342625-12.3252318 10.618942-16.4743198 17.454123-16.4743198 8.543976 0 16.355611 6.223632 16.721782 16.4743198zm56.125173 40.88072c14.036532 0 27.584837-8.664272 30.5142-24.040304h-14.158589c-1.952909 8.786304-8.910146 11.959136-16.111498 11.959136-8.543976 0-16.843839-6.71176-16.843839-22.331856 0-15.4980638 8.055749-22.2098238 17.21001-22.2098238 7.933692 0 13.914475 4.88128 15.2571 11.8371038h14.158589c-2.563193-14.5218078-15.012987-23.9182718-29.415689-23.9182718-19.651146 0-32.222996 14.887904-32.222996 34.4130238 0 19.52512 12.57185 34.290992 31.612712 34.290992zm71.357861 0c15.989442 0 32.345053-10.494752 32.345053-34.290992 0-23.6742078-16.355611-34.4130238-32.345053-34.4130238-15.989441 0-32.345052 10.738816-32.345052 34.4130238 0 23.79624 16.355611 34.290992 32.345052 34.290992zm0-11.837104c-9.276317 0-17.332066-7.199888-17.332066-22.453888 0-15.1319678 8.055749-22.5759198 17.332066-22.5759198s17.332067 7.443952 17.332067 22.5759198c0 15.254-8.05575 22.453888-17.332067 22.453888zm59.823494-63.5786718v-14.64384h-14.524759v14.64384zm0 73.8293598v-65.6532158h-14.524759v65.6532158zm30.859415 0v-34.901152c0-11.8371038 4.027875-20.3793438 15.2571-20.3793438 11.229226 0 12.449794 8.786304 12.449794 17.5726078v37.707888h14.52476v-41.246816c0-15.6200958-6.469011-25.8707838-22.336395-25.8707838-9.276317 0-16.111498 3.782992-19.895259 10.616784v-9.1524h-14.52476v65.6532158z" fill="#000" fill-rule="nonzero"/></g></svg>