<?xml version="1.0" encoding="UTF-8"?>
<svg width="908" height="400" viewBox="0 0 908 400" xmlns="http://www.w3.org/2000/svg">
 <g fill="#fff" fill-rule="evenodd">
  <path d="m370.14 243.51v-39.05h43.565v-12.813h-43.565v-23.674h46.25v-12.935h-61.748v88.473zm70.831-73.829v-14.644h-14.522v14.644zm0 73.829v-65.653h-14.522v65.653zm30.853 0v-88.473h-14.522v88.473zm45.802 1.5864c16.84 0 26.847-10.739 29.776-21.234h-14.278c-2.5627 6.2236-8.4202 9.1524-16.108 9.1524-8.2982 0-16.84-5.9796-17.817-18.183h48.935c1.3424-21.966-11.349-38.44-31.484-38.44-18.549 0-32.216 14.034-32.216 33.803 0 18.915 12.081 34.901 33.193 34.901zm15.742-40.881h-34.169c1.3424-12.325 10.617-16.474 17.451-16.474 8.5422 0 16.352 6.2236 16.718 16.474zm56.114 40.881c14.034 0 27.579-8.6643 30.508-24.04h-14.156c-1.9525 8.7863-8.9083 11.959-16.108 11.959-8.5422 0-16.84-6.7118-16.84-22.332 0-15.498 8.0541-22.21 17.207-22.21 7.9321 0 13.912 4.8813 15.254 11.837h14.156c-2.5627-14.522-15.01-23.918-29.41-23.918-19.647 0-32.216 14.888-32.216 34.413s12.569 34.291 31.606 34.291zm71.343 0c15.986 0 32.338-10.495 32.338-34.291 0-23.674-16.352-34.413-32.338-34.413s-32.338 10.739-32.338 34.413c0 23.796 16.352 34.291 32.338 34.291zm0-11.837c-9.2744 0-17.329-7.1999-17.329-22.454 0-15.132 8.0541-22.576 17.329-22.576s17.329 7.444 17.329 22.576c0 15.254-8.0541 22.454-17.329 22.454zm59.811-63.579v-14.644h-14.522v14.644zm0 73.829v-65.653h-14.522v65.653zm30.853 0v-34.901c0-11.837 4.0271-20.379 15.254-20.379s12.447 8.7863 12.447 17.573v37.708h14.522v-41.247c0-15.62-6.4677-25.871-22.332-25.871-9.2744 0-16.108 3.783-19.891 10.617v-9.1524h-14.522v65.653z" fill-rule="nonzero"/>
  <path transform="translate(100 101)" d="m100.35 0c54.61 0.32564 99.461 45.019 99.034 100.51-0.41905 54.455-44.817 99.008-99.688 98.831-55.029 0.21069-99.949-44.814-99.7-100.14 0.25056-54.697 44.952-99.531 100.35-99.202zm13.958 48.732c-5.5543 7.5981-7.9905 16.531-10.642 25.36-0.77333 2.5771-1.4362 5.1886-2.2133 8.0171-9.6857-1.4019-18.977-2.7467-28.539-4.1276-0.33905 2.581-0.65524 5.0019-0.99238 7.5733 9.4667 1.4571 18.524 2.8495 27.884 4.2895-1.2533 5.28-2.421 10.208-3.621 15.263-9.181-1.2838-17.886-2.4971-26.65-3.7238-0.37143 2.8305-0.65143 4.9695-0.98286 7.4876 8.8019 1.3448 17.288 2.64 25.83 3.9448 0 0.96381 0.10476 1.5238-0.017143 2.0324-2.7257 11.617-5.261 23.286-8.3181 34.813-1.461 5.4971-3.8114 10.804-8.381 14.667-3.7619 3.179-7.8952 2.6476-10.724-1.2971-1.2781-1.7771-2.3448-3.8876-4.0324-5.1333-1.2324-0.91238-3.9752-1.461-4.88-0.72952-1.341 1.0857-2.3124 3.4876-2.1981 5.2514 0.097143 1.5638 1.6019 3.3924 2.9829 4.459 4.6533 3.5829 10.13 4.1029 15.678 3.0114 9.2933-1.8305 15.848-7.6286 19.91-15.829 3.1924-6.4457 5.5829-13.33 7.8419-20.181 2.0457-6.2038 3.4343-12.625 5.1676-19.17 9.1276 1.3238 18.074 2.621 27.206 3.9448 0.75429-2.6057 1.4343-4.9638 2.1676-7.5029-9.5543-1.4038-18.67-2.7467-27.865-4.099 1.1048-5.3962 2.0876-10.202 3.1581-15.436 8.6933 1.2286 17.19 2.4267 25.95 3.6648 0.73714-2.6362 1.3638-4.8838 2.0819-7.4533-9.0095-1.3333-17.608-2.6057-26.84-3.9714 3.1048-10.987 5.7867-21.491 9.141-31.781 1.1048-3.3867 3.5733-6.5657 6.0895-9.1962 3.301-3.4476 7.8686-2.6838 10.665 1.1048 1.1714 1.5867 2.2743 3.2648 3.6781 4.6229 1.7924 1.7314 4.4343 2.5733 6.2343 0.88762 1.1829-1.1067 1.1448-3.7105 1.2552-5.6686 0.04381-0.78667-0.88381-1.7124-1.5257-2.4381-3.1257-3.539-7.3486-4.7924-11.808-4.979-9.9486-0.41714-17.088 4.6552-22.693 12.322z"/>
 </g>
</svg>
