<svg height="400" viewBox="0 0 400 400" width="400" xmlns="http://www.w3.org/2000/svg"><g fill="none" fill-rule="evenodd" transform="translate(100 100)"><path d="m99.7000822 199.345425c-55.0285715.210686-99.94857146-44.814075-99.7000822-100.1435992.25055836-54.6971429 44.9515107-99.53142859 100.353416-99.2018258 54.609523.3256353 99.460952 45.0189686 99.034285 100.514207-.419047 54.455238-44.817143 99.007619-99.6876188 98.831218" fill="#0090ff"/><path d="m112.082939 91.6172544c8.693334 1.2285714 17.190477 2.4266666 25.950477 3.6647619.737142-2.6361905 1.363809-4.8838096 2.081904-7.4533334-9.009524-1.3333333-17.607619-2.6057143-26.84-3.9714285 3.104762-10.9866667 5.786667-21.4914286 9.140953-31.7809524 1.104762-3.3866667 3.573333-6.5657143 6.089523-9.1961905 3.300953-3.4476191 7.868572-2.6838095 10.664762 1.1047619 1.171429 1.5866667 2.274286 3.2647619 3.678096 4.6228571 1.792381 1.7314286 4.434285 2.5733334 6.234285.8876191 1.182857-1.1066667 1.144762-3.7104762 1.255238-5.6685714.04381-.7866667-.883809-1.712381-1.525714-2.4380953-3.125714-3.5390476-7.348571-4.7923809-11.807619-4.9790476-9.948571-.4171429-17.087619 4.6552381-22.693333 12.3219048-5.554286 7.5980952-7.990476 16.5314285-10.641905 25.36-.773333 2.5771428-1.43619 5.1885714-2.213333 8.0171428-9.6857146-1.4019047-18.9771432-2.7466666-28.539048-4.127619-.3390476 2.5809524-.6552381 5.0019047-.9923809 7.5733333 9.4666666 1.4571429 18.5238095 2.8495238 27.8838095 4.2895238-1.2533333 5.28-2.4209524 10.207619-3.6209524 15.262857-9.1809524-1.283809-17.8857143-2.497143-26.6495238-3.723809-.3714286 2.830476-.6514286 4.969523-.9828571 7.487619 8.8019047 1.344762 17.287619 2.64 25.8304762 3.944762 0 .963809.1047619 1.523809-.0171429 2.032381-2.7257143 11.617142-5.2609524 23.285714-8.3180952 34.813333-1.4609524 5.497143-3.8114286 10.803809-8.3809524 14.666667-3.7619048 3.179047-7.8952381 2.647619-10.7238095-1.297143-1.2780953-1.777143-2.344762-3.887619-4.032381-5.133334-1.232381-.912381-3.9752381-1.460952-4.88-.729523-1.3409524 1.085714-2.312381 3.487619-2.1980952 5.251428.0971428 1.56381 1.6019047 3.392381 2.9828571 4.459048 4.6533333 3.582857 10.1295238 4.102857 15.6780952 3.011428 9.2933334-1.830476 15.8476191-7.628571 19.9104762-15.828571 3.192381-6.445714 5.5828572-13.329524 7.8419052-20.180953 2.045714-6.203809 3.434285-12.624761 5.167619-19.169523 9.127619 1.323809 18.074285 2.620952 27.205714 3.944762.754286-2.605715 1.434286-4.96381 2.167619-7.502858-9.554286-1.403809-18.670476-2.746666-27.864762-4.099047 1.104762-5.396191 2.087619-10.2019049 3.158095-15.4361906" fill="#fff"/></g></svg>