<svg height="400" viewBox="0 0 908 400" width="908" xmlns="http://www.w3.org/2000/svg"><g fill="none" fill-rule="evenodd" transform="translate(100 100)"><g transform="translate(-.000643 .343641)"><path d="m99.6999996 199.656338c-55.0285258.211016-99.94848866-44.88397-99.6999996-100.2997898.25055815-54.7824525 44.9514735-99.68666507 100.353332-99.3565482 54.609479.32614319 99.46087 45.0891835 99.034204 100.670976-.419047 54.54017-44.817106 99.162039-99.6875364 98.985362" fill="#0090ff"/><path d="m112.082847 91.7601473c8.693326 1.2304876 17.190461 2.4304515 25.950454 3.6704777.737142-2.640302 1.363809-4.8914266 2.081903-7.4649581-9.009516-1.3354129-17.607604-2.6097783-26.839978-3.9776227 3.10476-11.0038022 5.786662-21.5249481 9.140945-31.8305202 1.104761-3.3919488 3.573331-6.5759547 6.089519-9.2105336 3.30095-3.4529962 7.868565-2.6879953 10.664753 1.106485 1.171428 1.5891414 2.274284 3.2698539 3.678092 4.6300673 1.79238 1.734129 4.434282 2.5773469 6.234281.8890034 1.182856-1.1083927 1.144761-3.7162633 1.255237-5.6774125.043809-.7878936-.883809-1.7150517-1.525713-2.4418979-3.125712-3.5445673-7.348565-4.7998555-11.807609-4.9868133-9.948564-.4177934-17.087605 4.6624988-22.693315 12.3411229-5.554281 7.6099458-7.990469 16.5572122-10.641896 25.3995533-.773333 2.5811624-1.436189 5.1966639-2.213331 8.029647-9.6857066-1.4040913-18.9771275-2.7509506-28.5390243-4.1340568-.3390474 2.5849779-.6552376 5.0097061-.9923802 7.5851453 9.4666589 1.4594155 18.5237942 2.8539681 27.8837865 4.2962141-1.2533323 5.288235-2.4209504 10.2235398-3.6209494 15.2866618-9.1809448-1.285811-17.8856995-2.501037-26.6495018-3.729617-.3714282 2.834891-.651428 4.977275-.9828563 7.499297 8.8018975 1.346859 17.2876047 2.644118 25.8304548 3.950915 0 .965312.1047618 1.526186-.0171428 2.03555-2.7257121 11.635262-5.2609481 23.322033-8.3180884 34.867631-1.4609512 5.505717-3.8114254 10.82066-8.3809454 14.689542-3.7619017 3.184006-7.8952316 2.651749-10.7238007-1.299166-1.2780942-1.779915-2.3447599-3.893682-4.0323776-5.14134-1.2323799-.913804-3.9752348-1.463231-4.8799959-.730661-1.3409513 1.087407-2.3123791 3.493058-2.1980935 5.259619.0971428 1.566248 1.6019035 3.397672 2.9828547 4.466002 4.6533295 3.588445 10.1295154 4.109256 15.6780823 3.016126 9.2933256-1.833332 15.8476059-7.64047 19.9104597-15.853259 3.1923783-6.455768 5.5828525-13.350314 7.8418983-20.212428 2.045713-6.213486 3.434283-12.644453 5.167615-19.199422 9.127611 1.325874 18.07427 2.62504 27.205691 3.950914.754286-2.609778 1.434285-4.971551 2.167618-7.514559-9.554278-1.405999-18.670461-2.750951-27.864739-4.105441 1.104761-5.404607 2.087617-10.2178162 3.158093-15.4602657" fill="#fff"/></g><path d="m270.1384 143.510476v-39.05024h43.565424v-12.8133598h-43.565424v-23.674208h46.250128v-12.935392h-61.748192v88.4731998zm70.830827-73.8293598v-14.64384h-14.521808v14.64384zm0 73.8293598v-65.6532158h-14.521808v65.6532158zm30.853143 0v-88.4731998h-14.521808v88.4731998zm45.802064 1.586416c16.840416 0 26.84704-10.738816 29.775808-21.233568h-14.277744c-2.562672 6.223632-8.420208 9.1524-16.108224 9.1524-8.298176 0-16.840416-5.979568-17.816672-18.182768h48.934832c1.342352-21.9657598-11.348976-38.4400798-31.484256-38.4400798-18.548864 0-32.216448 14.03368-32.216448 33.8028638 0 18.91496 12.081168 34.901152 33.192704 34.901152zm15.742128-40.88072h-34.16896c1.342352-12.3252318 10.616784-16.4743198 17.450576-16.4743198 8.54224 0 16.352288 6.223632 16.718384 16.4743198zm56.113768 40.88072c14.03368 0 27.579232-8.664272 30.508-24.040304h-14.155712c-1.952512 8.786304-8.908336 11.959136-16.108224 11.959136-8.54224 0-16.840416-6.71176-16.840416-22.331856 0-15.4980638 8.054112-22.2098238 17.206512-22.2098238 7.93208 0 13.911648 4.88128 15.254 11.8371038h14.155712c-2.562672-14.5218078-15.009936-23.9182718-29.409712-23.9182718-19.647152 0-32.216448 14.887904-32.216448 34.4130238 0 19.52512 12.569296 34.290992 31.606288 34.290992zm71.343361 0c15.986192 0 32.33848-10.494752 32.33848-34.290992 0-23.6742078-16.352288-34.4130238-32.33848-34.4130238s-32.33848 10.738816-32.33848 34.4130238c0 23.79624 16.352288 34.290992 32.33848 34.290992zm0-11.837104c-9.274432 0-17.328544-7.199888-17.328544-22.453888 0-15.1319678 8.054112-22.5759198 17.328544-22.5759198s17.328544 7.443952 17.328544 22.5759198c0 15.254-8.054112 22.453888-17.328544 22.453888zm59.811337-63.5786718v-14.64384h-14.521808v14.64384zm0 73.8293598v-65.6532158h-14.521808v65.6532158zm30.853144 0v-34.901152c0-11.8371038 4.027056-20.3793438 15.254-20.3793438s12.447264 8.786304 12.447264 17.5726078v37.707888h14.521808v-41.246816c0-15.6200958-6.467696-25.8707838-22.331856-25.8707838-9.274432 0-16.108224 3.782992-19.891216 10.616784v-9.1524h-14.521808v65.6532158z" fill="#fff" fill-rule="nonzero"/></g></svg>