<?xml version="1.0" encoding="utf-8"?>
<!-- Generator: Adobe Illustrator 25.2.1, SVG Export Plug-In . SVG Version: 6.00 Build 0)  -->
<svg version="1.1" id="Layer_1" xmlns="http://www.w3.org/2000/svg" xmlns:xlink="http://www.w3.org/1999/xlink" x="0px" y="0px"
	 viewBox="0 0 127 127" style="enable-background:new 0 0 127 127;" xml:space="preserve">
<style type="text/css">
	.st0{fill-rule:evenodd;clip-rule:evenodd;fill:#0090FF;}
	.st1{fill-rule:evenodd;clip-rule:evenodd;fill:#FFFFFF;}
</style>
<g transform="translate(-.000643 .343641)">
	<path class="st0" d="M63.5,126.6C28.5,126.7-0.1,98,0.1,62.8C0.3,28,28.7-0.6,63.9-0.3c34.7,0.2,63.2,28.7,63,64
		C126.6,98.3,98.4,126.7,63.5,126.6"/>
	<path class="st1" d="M71.4,58c5.5,0.8,10.9,1.5,16.5,2.3c0.5-1.7,0.9-3.1,1.3-4.7C83.5,54.7,78,53.9,72.1,53c2-7,3.7-13.7,5.8-20.2
		c0.7-2.2,2.3-4.2,3.9-5.9c2.1-2.2,5-1.7,6.8,0.7c0.7,1,1.4,2.1,2.3,2.9c1.1,1.1,2.8,1.6,4,0.6c0.8-0.7,0.7-2.4,0.8-3.6
		c0-0.5-0.6-1.1-1-1.6c-2-2.3-4.7-3.1-7.5-3.2c-6.3-0.3-10.9,3-14.4,7.8c-3.5,4.8-5.1,10.5-6.8,16.1c-0.5,1.6-0.9,3.3-1.4,5.1
		c-6.2-0.9-12.1-1.7-18.1-2.6c-0.2,1.6-0.4,3.2-0.6,4.8c6,0.9,11.8,1.8,17.7,2.7c-0.8,3.4-1.5,6.5-2.3,9.7
		c-5.8-0.8-11.4-1.6-16.9-2.4c-0.2,1.8-0.4,3.2-0.6,4.8c5.6,0.9,11,1.7,16.4,2.5c0,0.6,0.1,1,0,1.3c-1.7,7.4-3.3,14.8-5.3,22.2
		c-0.9,3.5-2.4,6.9-5.3,9.3c-2.4,2-5,1.7-6.8-0.8c-0.8-1.1-1.5-2.5-2.6-3.3c-0.8-0.6-2.5-0.9-3.1-0.5c-0.9,0.7-1.5,2.2-1.4,3.3
		c0.1,1,1,2.2,1.9,2.8c3,2.3,6.4,2.6,10,1.9c5.9-1.2,10.1-4.9,12.7-10.1c2-4.1,3.5-8.5,5-12.8c1.3-3.9,2.2-8,3.3-12.2
		c5.8,0.8,11.5,1.7,17.3,2.5c0.5-1.7,0.9-3.2,1.4-4.8c-6.1-0.9-11.9-1.7-17.7-2.6C70.1,64.4,70.7,61.3,71.4,58"/>
</g>
</svg>
