<?xml version="1.0" encoding="UTF-8"?>
<!-- Generator: Adobe Illustrator 25.2.1, SVG Export Plug-In . SVG Version: 6.00 Build 0)  -->
<svg id="Layer_1" enable-background="new 0 0 127 127" version="1.1" viewBox="0 0 127 127" xml:space="preserve" xmlns="http://www.w3.org/2000/svg">
<style type="text/css">
	.st0{fill-rule:evenodd;clip-rule:evenodd;fill:#0090FF;}
	.st1{fill-rule:evenodd;clip-rule:evenodd;fill:#FFFFFF;}
</style>
<g transform="translate(-.000643 .34364)">
	<path class="st0" d="m63.5 126.6c-35 0.1-63.6-28.6-63.4-63.8 0.2-34.8 28.6-63.4 63.8-63.1 34.7 0.2 63.2 28.7 63 64-0.3 34.6-28.5 63-63.4 62.9"/>
	<path class="st1" d="m71.4 58c5.5 0.8 10.9 1.5 16.5 2.3 0.5-1.7 0.9-3.1 1.3-4.7-5.7-0.9-11.2-1.7-17.1-2.6 2-7 3.7-13.7 5.8-20.2 0.7-2.2 2.3-4.2 3.9-5.9 2.1-2.2 5-1.7 6.8 0.7 0.7 1 1.4 2.1 2.3 2.9 1.1 1.1 2.8 1.6 4 0.6 0.8-0.7 0.7-2.4 0.8-3.6 0-0.5-0.6-1.1-1-1.6-2-2.3-4.7-3.1-7.5-3.2-6.3-0.3-10.9 3-14.4 7.8s-5.1 10.5-6.8 16.1c-0.5 1.6-0.9 3.3-1.4 5.1-6.2-0.9-12.1-1.7-18.1-2.6l-0.6 4.8c6 0.9 11.8 1.8 17.7 2.7-0.8 3.4-1.5 6.5-2.3 9.7-5.8-0.8-11.4-1.6-16.9-2.4-0.2 1.8-0.4 3.2-0.6 4.8 5.6 0.9 11 1.7 16.4 2.5 0 0.6 0.1 1 0 1.3-1.7 7.4-3.3 14.8-5.3 22.2-0.9 3.5-2.4 6.9-5.3 9.3-2.4 2-5 1.7-6.8-0.8-0.8-1.1-1.5-2.5-2.6-3.3-0.8-0.6-2.5-0.9-3.1-0.5-0.9 0.7-1.5 2.2-1.4 3.3 0.1 1 1 2.2 1.9 2.8 3 2.3 6.4 2.6 10 1.9 5.9-1.2 10.1-4.9 12.7-10.1 2-4.1 3.5-8.5 5-12.8 1.3-3.9 2.2-8 3.3-12.2 5.8 0.8 11.5 1.7 17.3 2.5 0.5-1.7 0.9-3.2 1.4-4.8-6.1-0.9-11.9-1.7-17.7-2.6 0.5-3 1.1-6.1 1.8-9.4"/>
</g>
</svg>
