<svg version="1.1" id="Layer_1" xmlns="http://www.w3.org/2000/svg" xmlns:xlink="http://www.w3.org/1999/xlink" x="0" y="0" viewBox="0 0 759.7 235.3" xml:space="preserve" enable-background="new 0 0 759.7 235.3"><style type="text/css">.st0{fill:#9ad4db}</style><path class="st0" d="M514.3,40h4v155.4h-4V40z"/><g><path d="M198.7,126.3c-16.9,0-33.3,0-49.7,0c-0.2,0.7-0.5,1.2-0.5,1.6c0,13.2,7.7,27.4,27.3,25.3c5.8-0.6,11.4-2.1,16.7-4.6 c0.7-0.3,1.5-0.6,2.8-1.1c0.6,2.8,1.1,5.4,1.7,8.2c-1,0.6-1.8,1.2-2.7,1.7c-9.7,4.9-20,6.3-30.6,4.5c-11.6-2-19.6-8.9-23.5-19.9 c-4.6-13-4.4-26.1,1.7-38.6c6.6-13.4,20.6-19.7,35.1-16.4c5.3,1.2,9.9,3.8,13.5,7.9C198.3,103.9,199.5,114.5,198.7,126.3z M148.8,117.7c3.9,1,36.4,0.8,39-0.2c0.4-3.4-0.3-6.8-1.4-10.1c-4.9-15.3-23.1-15-30.5-7C151.4,105.2,149.3,111,148.8,117.7z"/><path d="M310.7,162.6c-14.9,0.1-26.1-7.5-31.1-21.6c-4.4-12.4-4.1-24.9,1.6-36.8c6.9-14.4,20.2-19.1,34.1-17.7 c18.7,1.8,27.1,16.7,28.9,30.7c0.9,6.8,0.6,13.6-1.1,20.3C338.8,153.6,327.2,162.6,310.7,162.6z M288,123.9 c0,6.8,0.9,12.9,3.8,18.6c4.2,8,11,11.4,19.8,11.3c8.8-0.2,15.3-4.1,18.7-12.3c4.6-11.2,4.6-22.6,0.2-33.9 c-1.7-4.3-4.5-7.7-8.7-9.9c-11.6-6.2-25.5-1.5-30.8,10.5C288.7,113.3,287.9,118.8,288,123.9z"/><path d="M54.1,62.5c0,3.2,0,6.1,0,9.4c-7.4,0-14.4,0-21.4,0c-7,0-20.9,0-20.9,0l-0.3,35.5c0,0,26.6,0,40.3,0c0,3.2,0,5.9,0,9 c-1.3,0.1-2.5,0.4-3.8,0.4c-10.8,0-21.6,0-32.4,0c-1.4,0-2.8,0.2-4.5,0.3c0,14.7,0,43.8,0,43.8H0.6c0,0-1.2-94.6-0.1-98.4 C18.2,62.5,36,62.5,54.1,62.5z"/><path d="M445.5,160.9c3.5,0,6.6,0,10,0c0.1-1.3,0.3-31.6,0.3-45.6c0-5.1-0.4-10.2-2.1-15c-2.4-6.7-6.9-11.2-14-12.9 c-11.8-2.8-22.2-0.1-31,8.2c-0.8,0.7-1.5,1.5-2.8,2.6c-0.7-3.8-1.2-6.9-1.7-10.1c-3,0-5.6,0-8.5,0c0,24.5,0,48.6,0,72.7 c3.6,0,6.9,0,10.4,0c0.1-1.7,0.5-32.8,0.6-47c0-3.9,1.5-7.4,4-10.4c5-6.2,11.9-8.3,19.6-8c9.9,0.3,13.7,5.3,14.7,14.9L445.5,160.9z"/><path d="M265.5,91.1c-1,2.9-1.9,5.4-2.8,7.9c-3.5-1-6.7-2.2-10.1-3c-4-0.9-8.1-1.1-12.1-0.1c-7.6,1.8-12.5,6.7-15.2,13.8 c-3.6,9.7-3.7,19.6-0.1,29.3c4,10.9,14,16.3,25.7,14.1c4.2-0.8,8.2-2.2,12.8-3.5c0.4,2.5,0.8,5.1,1.2,7.7c-2.8,2.5-5.9,3.5-9,4.3 c-5.5,1.4-11.1,1.4-16.7,0.6c-11-1.7-19.1-7.7-23.6-17.8c-5.8-13-5.8-26.4,0.1-39.4c6.8-14.8,20-19.8,34.7-18.4 C254,86.9,263.7,90.3,265.5,91.1z"/><path d="M113.1,136.1c0,3.2,0.2,6.5,0.7,9.7c0.7,5.1,3.5,7.5,8.7,7.7c1.6,0.1,3.3,0,4.9-0.1c1.6-0.1,3.2-0.3,5.2-0.4 c0.2,2.8,0.4,5.4,0.6,8.3c-7.7,1.2-15,2.3-22.1-1.1c-3.4-1.6-8.3-4.4-8.6-21.2c-0.2-15-0.1-30-0.1-44.9c0-10.1,0-20.2,0-30.3 c0-1.3,0-2.6,0-4.7c3.6-0.2,6.8-0.4,10.4-0.6L113.1,136.1z"/><path d="M70.3,88.1c0,0,6.5,0,10,0c0,24.3,0,48.5,0,72.8c-3.5,0-9.8,0-9.8,0L70.3,88.1z"/><path d="M363.2,88.2c3.5,0,6.7,0,10.2,0c0,24.3,0,48.3,0,72.7c-3.4,0-6.6,0-10.2,0C363.2,136.6,363.2,112.5,363.2,88.2z"/><path d="M70.1,73.5c0-4.1,0-8,0-12.1c3.4,0,10.1,0,10.1,0l0.2,12.1C80.4,73.5,73.8,73.5,70.1,73.5z"/><path d="M363.3,73.4c0-4,0-7.8,0-12c3.3,0,6.5,0,10.1,0c0,3.9,0,7.8,0,12C370.1,73.4,366.8,73.4,363.3,73.4z"/></g><g><path d="M585.9,90.9h14.7c20.4,0,35.3,7.1,35.3,30c0,19.7-12.6,29.2-31.3,29.2h-18.7V90.9z M592.8,143.9h12.5 c14.5,0,23.1-7.5,23.1-22.8c0-18.6-10.8-24.1-27-24.1h-8.6V143.9z"/><path d="M663.2,151c-13.1,0-20.4-10.1-20.4-22.6c0-12.4,7.5-22.8,20.6-22.8c13.3,0,19.9,10.3,19.9,22.8 C683.3,140.3,676.3,151,663.2,151z M663.2,111.1c-9.3,0-13.6,8.6-13.6,17.4c0,8.7,4.3,17.1,13.8,17.1c9.4,0,13-8.3,13-17.2 C676.4,119.2,673,111.1,663.2,111.1z"/><path d="M722,147c-2.8,2.7-7.5,4-11.7,4c-13.5,0-20.9-10.6-20.9-22.7c0.1-12,7.9-22.8,20.8-22.8c5,0,9.4,1.5,11.8,3.8l-1.7,4.7 c-3.3-2.2-6.9-3-10.2-3c-7.9,0-14,7.4-14,17.4c0,10,5.8,17.1,14.5,17.1c3.9,0,7.4-1.5,9.8-3.2L722,147z"/><path d="M757.7,138.3c-0.2,8.2-6.1,12.6-14.3,12.6c-6.6,0-12.5-2.1-15.1-4l1.7-5.1c1.6,1.1,6.4,3.6,12.3,3.6h0.6 c4.9,0,8.1-2.4,8.5-7v-0.4c0-2.8-1.7-5.3-6.6-6.7l-5.8-1.6c-8.7-2.4-11.2-6.7-11.3-12c0-6.1,4.8-12.1,14.5-12.2 c5.6,0,9.8,1.1,13.1,2.8l-1.5,4.8c-2.3-1-6.3-2.3-11.1-2.3c-4.8,0-8.3,2.5-8.3,7c0,2.7,1.5,4.8,6.2,6l6,1.6 c7,1.9,10.9,5.6,10.9,12.8V138.3z"/></g></svg>