<svg id="Layer_1" data-name="Layer 1" xmlns="http://www.w3.org/2000/svg" viewBox="0 0 927.07 235.3"><defs><style>.cls-1{fill:#9ad4db;}</style></defs><title>1080p_Artboard 1</title><path class="cls-1" d="M514.27,40h4v155.4h-4Z"/><path d="M198.66,126.28H149a6.21,6.21,0,0,0-.51,1.63c0,13.15,7.69,27.36,27.25,25.33a52.33,52.33,0,0,0,16.71-4.59c.72-.33,1.49-.58,2.75-1.07.58,2.82,1.11,5.43,1.67,8.22-1,.61-1.76,1.22-2.65,1.67A48,48,0,0,1,163.61,162c-11.62-2-19.64-8.88-23.55-19.89-4.6-13-4.41-26.1,1.75-38.61,6.59-13.38,20.56-19.71,35.07-16.37A25.1,25.1,0,0,1,190.38,95C198.3,103.86,199.47,114.53,198.66,126.28ZM148.8,117.7c3.87,1,36.43.79,39-.18a23.27,23.27,0,0,0-1.38-10.1c-4.92-15.27-23.08-15-30.54-7C151.37,105.24,149.28,111,148.8,117.7Z"/><path d="M310.65,162.64c-14.89.06-26.06-7.5-31.07-21.58-4.42-12.41-4.12-24.88,1.58-36.84C288,89.79,301.35,85.15,315.3,86.53c18.69,1.83,27.08,16.71,28.9,30.65a52.35,52.35,0,0,1-1.12,20.29C338.85,153.56,327.22,162.57,310.65,162.64ZM288,123.94c0,6.84.9,12.93,3.84,18.58,4.16,8,11,11.41,19.75,11.26s15.34-4.15,18.67-12.31a44.5,44.5,0,0,0,.18-33.91,18.58,18.58,0,0,0-8.65-9.91A21.94,21.94,0,0,0,291,108.13,38.51,38.51,0,0,0,288,123.94Z"/><path d="M54.06,62.5v9.38H11.79l-.29,35.46H51.78v9c-1.27.13-2.54.35-3.81.36-10.79,0-21.59,0-32.38,0-1.39,0-2.78.19-4.51.32v43.84H.55S-.61,66.22.43,62.5Z"/><path d="M445.49,160.92h10c.14-1.29.34-31.58.28-45.64,0-5.1-.39-10.17-2.14-15-2.42-6.71-6.95-11.19-14-12.87q-17.7-4.26-31,8.24c-.77.73-1.53,1.46-2.77,2.62-.65-3.78-1.19-6.9-1.74-10.07h-8.51v72.69H406c.08-1.7.45-32.83.59-47a16.39,16.39,0,0,1,4-10.35c5-6.24,11.89-8.31,19.56-8.05,9.94.32,13.7,5.28,14.71,14.86Z"/><path d="M265.47,91.13l-2.83,7.94c-3.49-1-6.73-2.21-10.06-3A26.53,26.53,0,0,0,240.46,96c-7.57,1.79-12.53,6.72-15.17,13.78a41,41,0,0,0-.13,29.32c4,10.91,14,16.29,25.74,14.07,4.16-.79,8.2-2.25,12.82-3.55.41,2.53.83,5.14,1.23,7.65-2.78,2.52-5.89,3.53-9,4.31a42,42,0,0,1-16.7.58c-11-1.68-19.07-7.7-23.56-17.81a46.34,46.34,0,0,1,.14-39.41c6.79-14.84,20-19.82,34.66-18.4C254,86.89,263.72,90.27,265.47,91.13Z"/><path d="M113.08,136.12a68.93,68.93,0,0,0,.69,9.74c.75,5.12,3.52,7.47,8.66,7.67,1.63.06,3.26,0,4.89-.07s3.19-.25,5.21-.42c.19,2.84.37,5.41.56,8.33-7.68,1.16-15,2.29-22.12-1.05-3.42-1.61-8.31-4.39-8.57-21.24-.25-15-.12-30-.12-44.93q0-15.14,0-30.27c0-1.31,0-2.63,0-4.69l10.36-.63Z"/><path d="M70.33,88.14h10V161H70.55Z"/><path d="M363.23,88.18h10.21v72.68H363.23Z"/><path d="M70.13,73.48V61.34H80.27l.17,12.14Z"/><path d="M363.26,73.4v-12h10.08v12Z"/><path d="M578.86,90.89h14.66c20.41,0,35.31,7.12,35.31,30,0,19.68-12.63,29.16-31.26,29.16H578.86Zm7,53H598.3c14.49,0,23.08-7.53,23.08-22.84,0-18.62-10.77-24.05-27-24.05h-8.59Z"/><path d="M656.21,151c-13.12,0-20.41-10.12-20.41-22.59s7.45-22.84,20.57-22.84c13.29,0,19.93,10.28,19.93,22.75C676.3,140.29,669.25,151,656.21,151Zm0-39.93c-9.31,0-13.61,8.59-13.61,17.42s4.3,17.09,13.77,17.09,13-8.35,13-17.17C669.41,119.15,666,111.05,656.21,111.05Z"/><path d="M715,147c-2.84,2.68-7.46,4-11.75,4-13.52,0-20.89-10.61-20.89-22.68s7.85-22.75,20.81-22.75c5,0,9.4,1.45,11.83,3.8l-1.7,4.7a18.35,18.35,0,0,0-10.21-3c-7.94,0-14,7.37-14,17.42s5.83,17.09,14.5,17.09a17.49,17.49,0,0,0,9.8-3.24Z"/><path d="M750.74,138.35c-.25,8.18-6.08,12.63-14.34,12.63-6.64,0-12.47-2.1-15.06-4l1.7-5.1a23.94,23.94,0,0,0,12.31,3.64H736c4.94,0,8.1-2.42,8.5-7v-.41c0-2.75-1.7-5.34-6.56-6.72l-5.75-1.62c-8.67-2.43-11.18-6.72-11.26-12,0-6.08,4.78-12.15,14.5-12.23a28.16,28.16,0,0,1,13.12,2.83L747,113.16a29.22,29.22,0,0,0-11.1-2.35c-4.77,0-8.34,2.51-8.34,7,0,2.67,1.54,4.77,6.24,6l6,1.62c7.05,1.86,10.94,5.59,10.94,12.79Z"/><path d="M795.94,151c-5.84,0-10.94-2.75-13.61-7.45V150h-6.56v-59l6.64-.73v22.92a15.87,15.87,0,0,1,13.69-7.69c12.06,0,18.22,10.69,18.22,22.27C814.32,140.37,808.25,151,795.94,151Zm-.49-5.42c9.31,0,12.07-9.4,12.07-17.34,0-7.77-2.68-17.17-11.91-17.17-7.61.08-13.28,7-13.28,17.17C782.33,137.62,786.3,145.56,795.45,145.56Z"/><path d="M840.32,151c-12.39,0-19.92-8.83-19.92-22.76,0-13,7.77-22.35,19.11-22.67,10.78,0,17.5,8.18,17.5,21,0,.65-.08,2.27-.08,3H827.2c0,9.8,5.75,15.79,13.37,15.79a23.84,23.84,0,0,0,13.76-4.37l2,4.86C852.8,148.88,847.29,151,840.32,151ZM827.44,124.9h23.17c0-9.23-4.62-13.93-11.1-13.93S828.17,116.4,827.44,124.9Z"/><path d="M874.34,135.51c0,8.1,1,9.8,6.24,9.8.73,0,2.35-.16,5.43-.4l.56,5.34c-4.94.41-6.15.57-7.53.57-10.53,0-11.34-5.18-11.34-18.39V111.21h-6.64l.57-4.61h6.07l1.7-14,4.94-.41V106.6h11.5v4.61h-11.5Z"/><path d="M904.07,151c-7.13,0-13.2-3.72-13.2-11.82,0-11.42,11-13,22.19-14.58l4.37-.49v-4.94c0-5.26-2.59-8-8.58-8a33.61,33.61,0,0,0-13.53,2.92l-1.86-5.18c3.32-1.79,9.07-3.32,15.23-3.32,8.58,0,15.3,2.83,15.3,12.55V150h-5.42l-1-4.78A17.77,17.77,0,0,1,904.07,151Zm13.36-11.58V128.71s-3.88.57-4,.57c-12.31,1.62-16,3.56-16,9.63,0,4.86,3.08,6.89,7.21,6.89S914.6,143.29,917.43,139.4Z"/></svg>