<svg height="400" viewBox="0 0 908 400" width="908" xmlns="http://www.w3.org/2000/svg"><g fill="#fff" fill-rule="evenodd"><path d="m370.1384 243.510476v-39.05024h43.565424v-12.81336h-43.565424v-23.674208h46.250128v-12.935392h-61.748192v88.4732zm70.830827-73.82936v-14.64384h-14.521808v14.64384zm0 73.82936v-65.653216h-14.521808v65.653216zm30.853143 0v-88.4732h-14.521808v88.4732zm45.802064 1.586416c16.840416 0 26.84704-10.738816 29.775808-21.233568h-14.277744c-2.562672 6.223632-8.420208 9.1524-16.108224 9.1524-8.298176 0-16.840416-5.979568-17.816672-18.182768h48.934832c1.342352-21.96576-11.348976-38.44008-31.484256-38.44008-18.548864 0-32.216448 14.03368-32.216448 33.802864 0 18.91496 12.081168 34.901152 33.192704 34.901152zm15.742128-40.88072h-34.16896c1.342352-12.325232 10.616784-16.47432 17.450576-16.47432 8.54224 0 16.352288 6.223632 16.718384 16.47432zm56.113768 40.88072c14.03368 0 27.579232-8.664272 30.508-24.040304h-14.155712c-1.952512 8.786304-8.908336 11.959136-16.108224 11.959136-8.54224 0-16.840416-6.71176-16.840416-22.331856 0-15.498064 8.054112-22.209824 17.206512-22.209824 7.93208 0 13.911648 4.88128 15.254 11.837104h14.155712c-2.562672-14.521808-15.009936-23.918272-29.409712-23.918272-19.647152 0-32.216448 14.887904-32.216448 34.413024s12.569296 34.290992 31.606288 34.290992zm71.343361 0c15.986192 0 32.33848-10.494752 32.33848-34.290992 0-23.674208-16.352288-34.413024-32.33848-34.413024s-32.33848 10.738816-32.33848 34.413024c0 23.79624 16.352288 34.290992 32.33848 34.290992zm0-11.837104c-9.274432 0-17.328544-7.199888-17.328544-22.453888 0-15.131968 8.054112-22.57592 17.328544-22.57592s17.328544 7.443952 17.328544 22.57592c0 15.254-8.054112 22.453888-17.328544 22.453888zm59.811337-63.578672v-14.64384h-14.521808v14.64384zm0 73.82936v-65.653216h-14.521808v65.653216zm30.853144 0v-34.901152c0-11.837104 4.027056-20.379344 15.254-20.379344s12.447264 8.786304 12.447264 17.572608v37.707888h14.521808v-41.246816c0-15.620096-6.467696-25.870784-22.331856-25.870784-9.274432 0-16.108224 3.782992-19.891216 10.616784v-9.1524h-14.521808v65.653216z" fill-rule="nonzero"/><path d="m100.353416 0c54.609523.3256353 99.460952 45.0189686 99.034285 100.514207-.419047 54.455238-44.817143 99.007619-99.6876188 98.831218-55.0285715.210686-99.94857146-44.814075-99.7000822-100.1435992.25055836-54.6971429 44.9515107-99.53142859 100.353416-99.2018258zm13.958095 48.7315401c-5.554286 7.5980952-7.990476 16.5314285-10.641905 25.36-.773333 2.5771428-1.43619 5.1885714-2.213333 8.0171428-9.6857146-1.4019047-18.9771432-2.7466666-28.539048-4.127619-.3390476 2.5809524-.6552381 5.0019047-.9923809 7.5733333 9.4666666 1.4571429 18.5238095 2.8495238 27.8838095 4.2895238-1.2533333 5.28-2.4209524 10.207619-3.6209524 15.262857-9.1809524-1.283809-17.8857143-2.497143-26.6495238-3.723809-.3714286 2.830476-.6514286 4.969523-.9828571 7.487619 8.8019047 1.344762 17.287619 2.64 25.8304762 3.944762 0 .963809.1047619 1.523809-.0171429 2.032381-2.7257143 11.617142-5.2609524 23.285714-8.3180952 34.813333-1.4609524 5.497143-3.8114286 10.803809-8.3809524 14.666667-3.7619048 3.179047-7.8952381 2.647619-10.7238095-1.297143-1.2780953-1.777143-2.344762-3.887619-4.032381-5.133334-1.232381-.912381-3.9752381-1.460952-4.88-.729523-1.3409524 1.085714-2.312381 3.487619-2.1980952 5.251428.0971428 1.56381 1.6019047 3.392381 2.9828571 4.459048 4.6533333 3.582857 10.1295238 4.102857 15.6780952 3.011428 9.2933334-1.830476 15.8476191-7.628571 19.9104762-15.828571 3.192381-6.445714 5.5828572-13.329524 7.8419052-20.180953 2.045714-6.203809 3.434285-12.624761 5.167619-19.169523 9.127619 1.323809 18.074285 2.620952 27.205714 3.944762.754286-2.605715 1.434286-4.96381 2.167619-7.502858-9.554286-1.403809-18.670476-2.746666-27.864762-4.099047 1.104762-5.396191 2.087619-10.2019049 3.158095-15.4361906 8.693334 1.2285714 17.190477 2.4266666 25.950477 3.6647619.737142-2.6361905 1.363809-4.8838096 2.081904-7.4533334-9.009524-1.3333333-17.607619-2.6057143-26.84-3.9714285 3.104762-10.9866667 5.786667-21.4914286 9.140953-31.7809524 1.104762-3.3866667 3.573333-6.5657143 6.089523-9.1961905 3.300953-3.4476191 7.868572-2.6838095 10.664762 1.1047619 1.171429 1.5866667 2.274286 3.2647619 3.678096 4.6228571 1.792381 1.7314286 4.434285 2.5733334 6.234285.8876191 1.182857-1.1066667 1.144762-3.7104762 1.255238-5.6685714.04381-.7866667-.883809-1.712381-1.525714-2.4380953-3.125714-3.5390476-7.348571-4.7923809-11.807619-4.9790476-9.948571-.4171429-17.087619 4.6552381-22.693333 12.3219048z" transform="translate(100 101)"/></g></svg>