<svg width="98" height="148" viewBox="0 0 98 148" fill="none" xmlns="http://www.w3.org/2000/svg">
<path d="M96.7439 111.401L62.7681 91.8685L96.1807 72.6515C96.5505 72.4696 96.8567 72.18 97.059 71.8209C97.26 71.4634 97.356 71.0564 97.3358 70.6467V49.3772C97.3274 48.9721 97.2192 48.5754 97.0208 48.2221C96.8173 47.8723 96.5282 47.5799 96.1807 47.3725L86.8061 42.0265L96.152 36.6423L96.6675 36.2795C97.0725 35.8284 97.2968 35.2437 97.2976 34.6375V13.3203C97.2928 12.9163 97.185 12.5203 96.9846 12.1695C96.7841 11.8187 96.4976 11.5248 96.152 11.3156L77.6415 0.6999C77.2937 0.518378 76.9073 0.423584 76.515 0.423584C76.1227 0.423584 75.7363 0.518378 75.3885 0.6999L1.65173 43.067C1.30706 43.267 1.02244 43.5559 0.827638 43.9036C0.632832 44.2512 0.534992 44.6448 0.544345 45.0432V66.3795C0.542575 66.783 0.651543 67.1792 0.859379 67.525C1.06005 67.8688 1.34614 68.1549 1.68992 68.3556L11.0263 73.7398L1.65173 79.2481C1.30661 79.4438 1.02245 79.7313 0.830737 80.0786C0.635905 80.4251 0.537041 80.8172 0.544345 81.2147V102.561C0.546467 102.96 0.65339 103.352 0.854423 103.697C1.05546 104.042 1.34355 104.328 1.68992 104.527L75.9804 147.057C76.278 147.203 76.6035 147.285 76.935 147.295H77.2978C77.631 147.266 77.9553 147.172 78.2524 147.018L96.7248 136.403C97.0755 136.208 97.366 135.921 97.5649 135.572C97.7656 135.227 97.871 134.835 97.8704 134.436V113.09C97.8377 112.75 97.7231 112.422 97.5363 112.136C97.3512 111.842 97.0993 111.597 96.8012 111.42L96.7439 111.401ZM90.8919 113.214L76.9732 121.252L44.2194 102.513L58.0617 94.4747L90.8919 113.214ZM5.45122 85.3292L18.9022 92.9663V109.043L5.45122 101.243V85.3292ZM23.5895 72.5847V56.5371L40.8972 46.5706L50.4436 41.0623L59.3027 35.9549L59.9805 35.5922L77.6606 25.3393L92.2189 16.9384L92.6485 16.6616V32.7378L23.5895 72.5847ZM76.6295 4.93853L90.5387 13.0053L21.5084 52.6803L7.58962 44.6327L76.6295 4.93853ZM5.098 48.9381L19.1026 56.9762V73.0524L5.098 65.0143V48.9381ZM15.6564 76.3078L20.2482 78.9235C20.4811 79.0379 20.734 79.106 20.9928 79.124H21.3556C21.6872 79.1133 22.0127 79.0319 22.3102 78.8853L82.1569 44.5945L90.4242 49.3009L21.2315 88.9282L7.31278 80.976L15.6564 76.3078ZM23.6086 111.725V93.1095L92.8681 53.3581V69.4343L38.7588 100.269C38.4115 100.462 38.1266 100.75 37.9378 101.1C37.7384 101.445 37.6392 101.838 37.6514 102.236C37.6486 102.64 37.7505 103.038 37.9473 103.391C38.1369 103.744 38.417 104.041 38.7588 104.25L38.8638 104.317L74.9112 124.746V140.823L23.6086 111.725ZM93.4027 133.424L79.4648 141.462V125.424L93.4027 117.348V133.424Z" fill="black"/>
</svg>
