<?xml version="1.0" encoding="UTF-8"?>
<svg id="logosandtypes_com" data-name="logosandtypes com" xmlns="http://www.w3.org/2000/svg" viewBox="0 0 150 150">
  <defs>
    <style>
      .cls-1 {
        fill: #ff5f3b;
      }

      .cls-2 {
        fill: none;
      }
    </style>
  </defs>
  <path class="cls-2" d="M0,0H150V150H0V0Z"/>
  <path class="cls-1" d="M46.16,18.65c2.89,0,4.33,0,5.43,.56,.97,.49,1.76,1.28,2.25,2.25,.56,1.1,.56,2.54,.56,5.43V63.14c0,4.3,0,6.45-.91,7.77-.79,1.15-2.02,1.93-3.4,2.16-1.58,.26-3.53-.65-7.43-2.46l-10.15-4.73c-7.33-3.42-11-5.13-13.68-7.76-2.37-2.33-4.18-5.17-5.29-8.31-1.26-3.55-1.26-7.59-1.26-15.68v-7.23c0-2.89,0-4.33,.56-5.43,.49-.97,1.28-1.76,2.25-2.25,1.1-.56,2.54-.56,5.43-.56h25.62Z"/>
  <path class="cls-1" d="M130.39,18.65c2.89,0,4.33,0,5.43,.56,.97,.49,1.76,1.28,2.25,2.25,.56,1.1,.56,2.54,.56,5.43v7.23c0,8.09,0,12.13-1.26,15.68-1.11,3.14-2.92,5.98-5.29,8.31-2.68,2.64-6.35,4.35-13.68,7.76l-21.88,10.2V26.89c0-2.89,0-4.33,.56-5.43,.49-.97,1.28-1.76,2.25-2.25,1.1-.56,2.55-.56,5.43-.56h25.62Z"/>
  <path class="cls-1" d="M96.52,76.08v49.19c0,2.89,0,4.33-.56,5.43-.49,.97-1.28,1.76-2.25,2.25-1.1,.56-2.55,.56-5.43,.56h-25.62c-2.89,0-4.33,0-5.43-.56-.97-.49-1.76-1.28-2.25-2.25-.56-1.1-.56-2.54-.56-5.43v-7.24c0-8.09,0-12.13,1.26-15.68,1.11-3.14,2.92-5.98,5.29-8.31,2.68-2.64,6.35-4.35,13.68-7.76l21.88-10.2Z"/>
</svg>