<?xml version="1.0" standalone="no"?>
<!DOCTYPE svg PUBLIC "-//W3C//DTD SVG 20010904//EN"
 "http://www.w3.org/TR/2001/REC-SVG-20010904/DTD/svg10.dtd">
<svg version="1.0" xmlns="http://www.w3.org/2000/svg"
 width="1416.000000pt" height="1416.000000pt" viewBox="0 0 1416.000000 1416.000000"
 preserveAspectRatio="xMidYMid meet">
<metadata>
Created by potrace 1.14, written by Peter Selinger 2001-2017
</metadata>
<g transform="translate(0.000000,1416.000000) scale(0.100000,-0.100000)"
fill="#000000" stroke="none">
<path d="M4934 10950 c-11 -4 -135 -73 -275 -152 -292 -166 -334 -190 -409
-231 -30 -16 -59 -33 -65 -37 -5 -5 -32 -20 -60 -36 -27 -15 -194 -109 -370
-209 -176 -100 -341 -193 -366 -207 -75 -42 -87 -51 -97 -72 -22 -49 -12 -56
333 -254 72 -41 157 -90 190 -110 33 -19 75 -43 94 -54 18 -10 130 -76 250
-145 119 -69 241 -140 271 -156 30 -17 72 -41 93 -54 21 -13 53 -32 70 -42 18
-10 104 -60 192 -111 88 -51 180 -104 205 -118 25 -14 73 -43 108 -64 34 -21
64 -38 66 -38 3 0 40 -21 83 -46 43 -26 92 -55 108 -64 17 -9 198 -114 403
-233 206 -120 378 -217 383 -217 5 0 9 -4 9 -10 0 -5 4 -10 9 -10 5 0 44 -20
85 -45 42 -25 81 -45 86 -45 6 0 10 -4 10 -10 0 -5 4 -10 9 -10 5 0 45 -21 88
-46 43 -26 96 -57 118 -69 22 -12 81 -46 130 -75 50 -29 106 -62 125 -72 19
-11 86 -50 148 -86 75 -43 124 -65 145 -65 34 0 89 23 172 71 62 36 64 37 380
217 143 81 294 167 335 190 41 23 93 52 115 65 22 12 76 43 120 68 44 24 163
92 265 150 102 58 208 118 235 133 28 15 58 38 68 51 31 41 9 66 -120 141 -63
37 -119 67 -124 67 -5 0 -9 4 -9 8 0 5 -15 16 -34 25 -19 8 -117 64 -217 123
-101 59 -200 116 -219 127 -34 19 -94 53 -155 90 -16 10 -38 20 -47 23 -10 4
-18 10 -18 15 0 5 -4 9 -9 9 -5 0 -87 45 -181 100 -95 55 -176 100 -181 100
-5 0 -9 5 -9 10 0 6 -4 10 -9 10 -4 0 -60 30 -122 66 -63 37 -134 78 -159 92
-45 25 -344 199 -618 359 -79 45 -147 83 -152 83 -6 0 -10 5 -10 10 0 6 -4 10
-10 10 -5 0 -70 36 -146 80 -75 44 -138 80 -140 80 -3 0 -22 11 -43 24 -21 13
-109 66 -197 116 -87 51 -172 101 -189 111 -16 10 -41 23 -54 29 -13 6 -35 19
-50 29 -14 10 -46 29 -71 43 -25 14 -130 74 -235 135 -104 61 -204 118 -222
127 -35 17 -76 20 -109 6z"/>
<path d="M9190 10931 c-14 -5 -84 -42 -155 -83 -131 -75 -407 -232 -500 -284
-66 -36 -90 -50 -215 -122 -104 -59 -514 -292 -600 -340 -155 -86 -180 -103
-186 -129 -4 -14 -3 -33 3 -42 11 -17 86 -65 198 -126 39 -21 77 -44 86 -51 8
-8 18 -14 22 -14 3 0 57 -30 119 -66 62 -37 131 -77 153 -89 22 -13 108 -62
190 -110 83 -48 168 -98 190 -110 22 -13 81 -46 130 -75 50 -29 104 -61 122
-71 17 -10 126 -73 243 -140 263 -151 237 -150 465 -19 88 51 167 95 175 98 8
3 22 11 30 17 8 7 40 26 70 42 30 17 172 96 315 178 143 81 280 159 305 173
25 14 90 51 145 82 106 61 138 79 305 173 133 74 132 73 128 115 -3 32 -9 38
-148 119 -80 47 -163 95 -185 107 -22 12 -51 29 -65 37 -29 19 -662 384 -735
424 -27 16 -66 39 -85 52 -19 12 -37 23 -41 23 -3 0 -47 25 -97 55 -50 30 -96
55 -102 55 -5 0 -10 5 -10 10 0 6 -4 10 -10 10 -5 0 -43 20 -84 44 -96 57
-134 69 -176 57z"/>
<path d="M3085 9580 c-49 -18 -50 -26 -52 -319 0 -152 -4 -764 -7 -1361 -4
-597 -9 -1446 -12 -1888 l-5 -803 22 -38 c19 -34 59 -60 332 -217 171 -99 331
-190 356 -204 25 -14 57 -32 71 -41 14 -9 57 -34 95 -56 130 -75 350 -201 395
-226 25 -14 124 -71 220 -126 96 -56 184 -101 195 -101 28 0 65 35 66 63 0 12
2 360 5 772 9 1452 9 1462 24 1480 25 31 52 34 95 12 22 -11 179 -100 348
-198 170 -99 312 -179 318 -179 5 0 9 -4 9 -10 0 -5 4 -10 9 -10 6 0 118 -63
251 -140 133 -77 244 -140 247 -140 2 0 17 -8 31 -19 15 -10 45 -29 67 -41 22
-12 173 -99 335 -193 349 -201 341 -197 361 -197 41 0 42 6 46 643 2 336 5
763 7 947 1 196 -1 347 -7 365 -10 30 -44 75 -58 75 -4 0 -117 64 -251 141
-133 78 -256 149 -273 159 -16 9 -115 67 -220 127 -185 108 -217 126 -320 185
-27 16 -57 33 -65 38 -14 9 -762 442 -855 495 -22 13 -177 103 -345 200 -168
98 -324 188 -347 201 -23 13 -108 63 -190 110 -81 48 -168 98 -193 112 -25 13
-49 28 -55 32 -5 4 -32 20 -60 35 -62 35 -140 80 -180 104 -16 10 -50 29 -75
43 -25 14 -99 57 -165 95 -140 81 -144 83 -170 73z"/>
<path d="M10880 9420 c-95 -55 -176 -100 -178 -100 -2 0 -30 -15 -61 -34 -56
-34 -74 -44 -186 -106 -33 -18 -64 -36 -70 -40 -9 -7 -178 -103 -305 -173 -30
-16 -59 -33 -65 -37 -5 -4 -32 -20 -60 -35 -59 -32 -336 -189 -450 -254 -67
-39 -84 -54 -102 -91 l-22 -45 0 -800 c-1 -1733 2 -1528 -23 -1565 -13 -18
-30 -37 -38 -41 -8 -5 -49 -28 -90 -52 -41 -24 -102 -59 -135 -77 -61 -34 -96
-54 -162 -91 -21 -12 -117 -66 -213 -121 -96 -54 -182 -103 -190 -108 -57 -34
-283 -160 -287 -160 -3 0 -17 -8 -31 -18 -15 -11 -58 -36 -97 -57 -77 -42
-192 -107 -500 -282 -77 -44 -167 -95 -200 -113 -78 -42 -122 -76 -136 -103
-12 -22 -13 -91 -22 -1386 l-4 -525 23 -23 c38 -38 41 -37 244 80 19 11 55 31
80 44 25 14 74 42 110 63 66 38 474 270 546 310 128 71 294 166 325 187 19 12
38 23 42 23 3 0 41 20 83 45 41 25 77 45 78 45 2 0 68 37 147 83 79 46 151 86
159 90 8 4 31 17 50 28 19 12 89 52 155 89 66 37 136 77 155 88 19 11 103 58
185 105 83 47 179 102 215 122 36 21 83 47 105 59 22 13 110 62 195 111 85 48
175 99 200 113 38 21 126 70 180 102 8 5 129 73 268 152 261 148 290 167 311
206 9 17 13 190 16 685 2 364 7 1180 11 1812 12 2051 13 1844 -9 1871 -11 15
-29 24 -45 24 -16 0 -99 -41 -202 -100z"/>
<path d="M8925 8311 c-8 -7 -590 -335 -795 -449 -25 -14 -90 -51 -145 -82 -55
-31 -127 -72 -160 -90 -68 -38 -109 -61 -162 -92 -21 -12 -56 -31 -78 -43
-121 -67 -260 -149 -269 -159 -6 -6 -17 -23 -24 -37 -14 -27 -15 -84 -23
-1421 -3 -530 -4 -523 53 -533 28 -5 47 4 373 190 236 134 422 240 475 268 30
17 88 50 128 74 41 24 75 43 77 43 12 0 623 354 632 367 13 16 13 34 16 1275
2 656 2 667 -18 682 -22 17 -66 21 -80 7z"/>
<path d="M5161 5901 c-12 -12 -21 -29 -22 -38 -1 -26 -7 -821 -10 -1394 -4
-589 -17 -531 136 -619 39 -23 77 -45 85 -50 55 -36 344 -200 351 -200 5 0 9
-4 9 -10 0 -5 4 -10 9 -10 8 0 62 -31 271 -154 25 -15 53 -29 63 -33 9 -3 17
-9 17 -14 0 -5 4 -9 9 -9 7 0 289 -160 351 -199 14 -9 190 -111 274 -159 23
-13 51 -30 63 -38 33 -21 61 -17 87 11 21 23 23 34 24 147 1 68 4 494 7 947
l6 823 -24 37 c-17 25 -60 56 -143 105 -412 239 -485 281 -534 311 -48 29
-561 327 -645 375 -16 10 -93 54 -170 99 -160 94 -184 102 -214 72z"/>
</g>
</svg>
