<?xml version="1.0" standalone="no"?>
<!DOCTYPE svg PUBLIC "-//W3C//DTD SVG 20010904//EN"
 "http://www.w3.org/TR/2001/REC-SVG-20010904/DTD/svg10.dtd">
<svg version="1.0" xmlns="http://www.w3.org/2000/svg"
 width="399.000000pt" height="399.000000pt" viewBox="0 0 399.000000 399.000000"
 preserveAspectRatio="xMidYMid meet">
<metadata>
Created by potrace 1.14, written by Peter Selinger 2001-2017
</metadata>
<g transform="translate(0.000000,399.000000) scale(0.100000,-0.100000)"
fill="#000000" stroke="none">
<path d="M1828 3985 c-2 -1 -32 -6 -67 -9 -36 -4 -67 -8 -70 -10 -3 -2 -30 -7
-60 -10 -29 -4 -57 -8 -61 -11 -4 -2 -20 -7 -36 -9 -106 -20 -321 -99 -453
-168 -540 -283 -923 -791 -1040 -1378 -33 -166 -39 -243 -36 -425 3 -142 25
-360 39 -384 2 -3 7 -22 10 -41 6 -39 32 -134 45 -165 5 -11 19 -49 31 -85 12
-36 50 -119 83 -185 259 -510 702 -876 1247 -1031 68 -19 263 -55 340 -62 188
-17 490 2 635 40 22 5 50 12 63 14 67 13 277 92 384 146 606 304 1011 881
1094 1558 3 30 7 119 9 197 5 322 -59 610 -200 898 -159 326 -390 591 -691
790 -242 161 -525 272 -793 311 -25 4 -55 9 -66 11 -23 5 -402 13 -407 8z"/>
</g>
</svg>
