<svg version="1.1" xmlns="http://www.w3.org/2000/svg" viewBox="0 0 1288 275.5" width="1288" height="275.5">
  <!-- svg-source:excalidraw -->
  
  <defs>
    <style>
      @font-face {
        font-family: "Virgil";
        src: url("https://excalidraw.com/Virgil.woff2");
      }
      @font-face {
        font-family: "Cascadia";
        src: url("https://excalidraw.com/Cascadia.woff2");
      }
    </style>
  </defs>
  <g transform="translate(10 62) rotate(0 109 54)"><path d="M87.4190638349061 0.47348521637962193 C100.94281708817913 -1.877559180954023, 118.66702520250765 -1.2900725840574587, 133.0338964582863 0.572686509179313 C147.40076771406495 2.4354456024160847, 161.61203168271712 7.240624977289421, 173.62029136957807 11.650039775800252 C185.62855105643902 16.059454574311083, 197.6228355718775 20.642474420112954, 205.08345457945205 27.029175300244297 C212.54407358702662 33.41587618037564, 217.45680002000327 42.38252022545203, 218.38400541502546 49.97024505658832 C219.31121081004764 57.5579698877246, 215.92172148261187 65.59701441441187, 210.6466869495851 72.55552428706201 C205.37165241655833 79.51403415971215, 196.97337484138234 86.4282560563251, 186.73379821686478 91.72130429248912 C176.49422159234723 97.01435252865315, 163.21032091852882 101.76025836096119, 149.2092272024797 104.31381370404618 C135.20813348643057 106.86736904713118, 117.76504820159468 107.55772102189488, 102.7272359205701 107.04263635099912 C87.68942363954551 106.52755168010336, 72.03110758172583 104.35737627113548, 58.98235351633222 101.22330567867162 C45.9335994509386 98.08923508620776, 33.754261653262105 93.82626164007993, 24.434711528208382 88.23821279621596 C15.115161403154657 82.65016395235199, 6.736109165279279 75.01547170936341, 3.0650527660098703 67.69501261548777 C-0.606003633259538 60.37455352161213, -0.258393212916848 51.65871222255057, 2.408373132591933 44.3154582329621 C5.075139478100715 36.97220424337363, 10.832350461598281 29.58291007095806, 19.065650839062556 23.63548867795695 C27.29895121652683 17.68806728495584, 38.92153906793895 12.671791162253637, 51.80817539737758 8.630929874955434 C64.69481172681621 4.590068587657231, 87.48232751252961 0.7260653303402727, 96.38546881569435 -0.609679045832273 C105.2886101188591 -1.9454234220048185, 105.00934892340459 -0.5822466154212218, 105.22702321636605 0.6164636179201608 M133.6602913944766 1.3937721303539519 C147.90032168531113 2.251236622152868, 164.44064007067772 6.711108512935265, 176.30776751550292 11.224924115027214 C188.17489496032812 15.738739717119163, 198.1938011503442 21.773811163014997, 204.8630560634278 28.476665742905645 C211.53231097651138 35.17952032279629, 215.1392234041526 44.22336605130613, 216.32329699400455 51.44205159437111 C217.5073705838565 58.66073713743609, 216.72592188881993 64.78176747197932, 211.96749760253942 71.78877900129554 C207.20907331625892 78.79579053061175, 198.64724718856135 87.90886966454879, 187.77275127632163 93.4841207702684 C176.8982553640819 99.05937187598802, 160.84428248474023 102.76199155699774, 146.72052212910103 105.24028563561325 C132.59676177346182 107.71857971422875, 117.90714240122254 109.08859941275975, 103.03018914248636 108.3538852419614 C88.15323588375018 107.61917107116304, 70.98332131173521 104.43510547785415, 57.45880257668398 100.83200061082309 C43.934283841632755 97.22889574379202, 30.889821605204126 92.58749150200738, 21.88307673217902 86.73525603977501 C12.876331859153916 80.88302057754264, 6.678421992730186 72.70711283868445, 3.4183333385333583 65.71858783742888 C0.15824468433653038 58.73006283617332, -0.5882284239971107 52.179196273336, 2.322544806998053 44.804106032241606 C5.233318037993216 37.429015791147215, 12.37053786091874 27.742590602089418, 20.88297272450434 21.468046390862536 C29.395407588089945 15.193502179635654, 40.8352512942469 10.508193934561199, 53.39715398851166 7.156840764880307 C65.95905668277642 3.805487595199416, 83.0099681545792 2.2047353855634326, 96.2543888900929 1.359927372777186 C109.4988096256066 0.5151193599909393, 126.90688805644292 1.977125530939259, 132.86367840159383 2.087992688162828 C138.82046874674475 2.1988598453863966, 132.23912647685736 1.4404741691580583, 131.99513096099835 2.0251303161185987" stroke="#000000" stroke-width="1" fill="none"></path></g><g transform="translate(97.5 103) rotate(0 21.5 13)"><text x="21.5" y="18" font-family="Virgil, Segoe UI Emoji" font-size="20px" fill="#000000" text-anchor="middle" style="white-space: pre;" direction="ltr">User</text></g><g transform="translate(894 10) rotate(0 192 92)"><path d="M181.8785348518749 -0.5553026803321615 C200.61280718792645 -2.254458418865421, 222.22458187715606 1.6150966890696403, 241.7290929131012 4.122303755472387 C261.2336039490463 6.629510821875135, 281.85718212881756 9.239995478876772, 298.9056010675457 14.48793971808432 C315.9540200062739 19.73588395729187, 331.84666152259797 27.790893208468855, 344.0196065454702 35.609969190717685 C356.1925515683424 43.42904517296652, 365.37392728732834 52.307859983776154, 371.9432712047791 61.402395611577305 C378.5126151222298 70.49693123937845, 382.8249264274825 80.53475060548185, 383.43567005017474 90.17718295752456 C384.04641367286695 99.81961530956728, 381.6479628780418 110.18304793634881, 375.6077329409324 119.2569897238336 C369.567503003823 128.3309315113184, 359.0253471100199 136.9050251763378, 347.1942904275181 144.6208336824333 C335.3632337450164 152.3366421885288, 320.6741097924413 159.61264329985175, 304.6213928459217 165.5518407604066 C288.56867589940214 171.49103822096146, 270.1113813271087 177.11066614680155, 250.87798874840053 180.25601844576244 C231.64459616969233 183.40137074472332, 209.40734417859107 184.68109537656443, 189.22103737367263 184.42395455417198 C169.03473056875418 184.16681373177954, 148.8002962922835 181.92766781459676, 129.7601479188899 178.71317351140783 C110.71999954549634 175.4986792082189, 91.22911868269377 170.86331048678116, 74.9801471333112 165.13698873503841 C58.731175583928646 159.41066698329567, 43.51354576419426 152.56601565783046, 32.266318622594554 144.35524300095142 C21.019091480994845 136.14447034407237, 12.914564325325035 125.40530272716371, 7.496784283712941 115.87235279376421 C2.0790042421008463 106.3394028603647, -1.1975140333553802 96.51791698515633, -0.24036162707801623 87.1575434005544 C0.7167907791993476 77.79716981595247, 5.815903481257455 68.55334071026684, 13.239698721377124 59.7101112861526 C20.663493961496794 50.86688186203837, 31.54531136376891 41.71618203310357, 44.30240981364 34.098166855868996 C57.059508263511084 26.48015167863442, 72.75562234873323 19.13623166201835, 89.78228942060365 14.002020222745145 C106.80895649247407 8.86780878347194, 128.41755169097192 5.641135443703133, 146.46241224486255 3.292898220229773 C164.50727279875318 0.9446609967564137, 186.77099958340636 0.20899939581422444, 198.05145274394738 -0.08740311809501122 C209.3319059044884 -0.3838056320042469, 214.13405238090337 -0.13429832108638817, 214.14513120810855 1.5144831367743592 M122.53121200644506 6.811563499491768 C139.24225613845616 2.0152424303858494, 164.11898249751982 1.240327991652817, 184.36088702825447 0.5377443342936772 C204.6027915589891 -0.16483932306546245, 224.84527796815055 0.08480753734794177, 243.982639190853 2.596061555336931 C263.1200004135555 5.10731557332592, 282.3238276134179 10.146770054444062, 299.18505436446924 15.605268442227612 C316.04628111552057 21.06376683001116, 332.6727967948782 27.42613949225142, 345.1499996971609 35.34705188203823 C357.62720259944365 43.267964271825036, 367.4033070220554 54.06540753225457, 374.0482717781655 63.13074278094847 C380.69323653427557 72.19607802964236, 384.9460238727112 80.27196791997638, 385.0197882338214 89.73906337420162 C385.09355259493157 99.20615882842687, 381.02787085619144 110.30810259132639, 374.49085794482664 119.93331550629996 C367.95384503346185 129.55852842127354, 357.8619767379361 139.52250378147485, 345.7977107656326 147.49034086404302 C333.73344479332906 155.4581779466112, 318.633045797447 162.39297256919127, 302.1052621110055 167.7403380017089 C285.57747842456405 173.0877034342265, 265.7812421494534 177.04879241216287, 246.63100864698367 179.57453345914877 C227.48077514451396 182.10027450613467, 207.10826509444468 183.2433528368217, 187.20386109618718 182.89478428362435 C167.2994570979297 182.54621573042698, 146.24745922339793 180.75268139243545, 127.20458465743872 177.48312213996465 C108.16171009147949 174.21356288749385, 89.05369458301985 169.18311193857585, 72.94661370043184 163.2774287687996 C56.83953281784383 157.37174559902337, 41.47694930801547 150.18060088413765, 30.562099361910697 142.04902312130713 C19.647249415805923 133.9174453584766, 12.485192247319773 123.54425163378933, 7.457514023803185 114.48796219181644 C2.4298358002865967 105.43167274984354, -0.9028738736288631 97.25639455387217, 0.39603002081116756 87.71128646946975 C1.6949339152511982 78.16617838506734, 7.574127326578989 66.45009529990715, 15.250937390443369 57.21731368540195 C22.92774745430775 47.98453207089675, 33.804453230319744 39.841357297839764, 46.45689040399745 32.31459678243856 C59.10932757767515 24.787836267037346, 78.08873669550688 16.544992573896916, 91.16556043250958 12.056750592994689 C104.24238416951228 7.568508612092461, 119.45017143903681 6.036642227820195, 124.91783282601365 5.385144897025185 C130.3854942129905 4.733647566230175, 122.97110710920789 6.6224796294889785, 123.97152875437067 8.147766608224629" stroke="#000000" stroke-width="1" fill="none"></path></g><g transform="translate(982.5 89) rotate(0 103.5 13)"><text x="103.5" y="18" font-family="Virgil, Segoe UI Emoji" font-size="20px" fill="#000000" text-anchor="middle" style="white-space: pre;" direction="ltr">The Filecoin Network</text></g><g transform="translate(459 25) rotate(0 103 88)"><path d="M1.5384331499758297 -1.2171183167307549 C54.20748066122344 -1.037217762202645, 105.357524899576 1.8039739857173676, 207.14431600351918 -1.578771725534194 M0.2483738737931285 -0.4636885318939183 C76.90553428289687 1.8392316203914731, 153.65646823726772 0.8137097993590564, 205.204620913022 -0.300059514607868 M205.45219414494932 0.863570848479867 C208.6218836800009 37.586754717305304, 207.09584866918624 76.33915344513953, 204.60681616328657 177.62301800586283 M205.51093535590917 0.36056509148329496 C205.0897287574783 59.43744146507234, 204.8671806005016 117.79437288474293, 205.92956407833844 175.98762547504157 M205.99406503912087 174.3049274035198 C131.69900523468672 176.76306194450575, 53.528664235629044 177.45207847307, 1.702373099535256 174.68649246633655 M205.58014076602214 175.4446270545838 C132.8193582794951 176.3084005548001, 61.14015223386504 176.00754534628982, 0.2329077051968489 176.54637515709248 M-0.44294280745089054 174.7077415380627 C3.102020229175687 109.94557401426135, 2.6111147654801607 44.596532482281305, -0.5852758977562189 0.1471394095569849 M-0.12456024717539549 175.35230859648436 C-1.2077995091304181 135.45708335023375, 0.13494278494268674 94.78569977115839, 0.034861703403294086 0.8092849804088473" stroke="#000000" stroke-width="1" fill="none"></path></g><g transform="translate(538 100) rotate(0 24 13)"><text x="24" y="18" font-family="Virgil, Segoe UI Emoji" font-size="20px" fill="#000000" text-anchor="middle" style="white-space: pre;" direction="ltr">Miner</text></g><g><g transform="translate(235 120) rotate(0 110.3078361205198 -0.06739199124280049)"><path d="M-0.8205539111047984 0.6421570602804423 C35.72890154483418 0.3398040238767863, 182.18021037143967 -0.7984935697168112, 219.16345679722727 -0.776941042765975 M0.9495165562257171 -0.0663144284114241 C37.889414837720494 0.28696493927389394, 184.78120194749286 0.5358740944042801, 221.43622615214437 0.3525901610031723" stroke="#000000" stroke-width="1" fill="none"></path></g><g transform="translate(235 120) rotate(0 110.3078361205198 -0.06739199124280049)"><path d="M194.32603946033126 9.24729335234731 C200.01310038633457 9.660026046040402, 210.73494238918073 3.115453879890815, 222.89143754381686 0.8616775838658213 M193.38708158939338 10.811905309755797 C199.1760663856312 7.666843191981387, 204.05356954123093 6.172040836043954, 220.59465829774737 1.030690563470125" stroke="#000000" stroke-width="1" fill="none"></path></g><g transform="translate(235 120) rotate(0 110.3078361205198 -0.06739199124280049)"><path d="M194.3054076266162 -11.273904875662598 C200.17579661231076 -4.932586796723264, 210.9035990213548 -5.548714657058679, 222.89143754381686 0.8616775838658213 M193.3664497556783 -9.70929291825411 C199.21699552571815 -8.586875653418197, 204.0987890597944 -5.814306121495552, 220.59465829774737 1.030690563470125" stroke="#000000" stroke-width="1" fill="none"></path></g></g><g><g transform="translate(890 110) rotate(0 -109.0673919912428 0.25106223382988446)"><path d="M0.6421570602804423 -0.8365432027727365 C-35.99352930945655 -0.5199634436517954, -182.46516023638347 1.1168961998075246, -218.77694104276597 1.0789246436208486 M-0.479849212411791 1.338667670432478 C-36.82229221507286 1.4158195512928067, -180.28798822943742 -0.2031565070711076, -216.47288055384533 -0.4772146672569215" stroke="#000000" stroke-width="1" fill="none"></path></g><g transform="translate(890 110) rotate(0 -109.0673919912428 0.25106223382988446)"><path d="M-189.58047997441972 -11.76541615553267 C-197.38721373284045 -5.1716317124156745, -211.89022219781506 -1.1404822314081082, -215.96379313098268 -2.318225664328784 M-188.01586801701123 -10.381620090418231 C-198.4956567095497 -8.05020113081051, -207.12629505271383 -4.721174599575041, -215.79478015137838 0.10731281502172352" stroke="#000000" stroke-width="1" fill="none"></path></g><g transform="translate(890 110) rotate(0 -109.0673919912428 0.25106223382988446)"><path d="M-189.77472715321568 8.754873082666915 C-197.36608099971232 7.4179333080365675, -211.79402624935796 3.519398047940987, -215.96379313098268 -2.318225664328784 M-188.2101151958072 10.138669147781354 C-198.51929509324114 5.741065696664189, -207.08623822915825 2.3413248712887835, -215.79478015137838 0.10731281502172352" stroke="#000000" stroke-width="1" fill="none"></path></g></g><g transform="translate(734 73) rotate(0 66 13)"><text x="0" y="18" font-family="Virgil, Segoe UI Emoji" font-size="20px" fill="#000000" text-anchor="start" style="white-space: pre;" direction="ltr">Pays 5.0 FIL</text></g><g transform="translate(275 87) rotate(0 57.5 13)"><text x="0" y="18" font-family="Virgil, Segoe UI Emoji" font-size="20px" fill="#000000" text-anchor="start" style="white-space: pre;" direction="ltr">Store 10GB</text></g><g transform="translate(211 194.5) rotate(0 41.5 35.5)"><path d="M21.988477504396545 4.594061317220884 C28.892404477384204 1.3200548209344647, 40.55521090630699 -0.036490268174481755, 48.555384764539596 0.9526584643951423 C56.5555586227722 1.9418071969647666, 64.38022737052235 5.80130938390489, 69.98952065379217 10.528953712638629 C75.59881393706199 15.256598041372367, 80.70903343803201 22.31324991225122, 82.21114446415851 29.318524436797574 C83.71325549028501 36.323798961343925, 82.68613104253212 46.30104798484572, 79.00218681055112 52.56060085991675 C75.31824257857012 58.82015373498778, 67.61944281270205 64.01671682232167, 60.10747907227251 66.87584168722377 C52.59551533184298 69.73496655212587, 42.10252768981344 70.72102723736556, 33.93040436797394 69.71535004932934 C25.758281046134442 68.70967286129313, 16.75961460649575 65.97110695257915, 11.074739141235519 60.84177855900649 C5.389863675975289 55.71245016543384, 0.8268280510363013 46.216890748370005, -0.17884842358743214 38.939379687893435 C-1.1845248982111656 31.661868627416865, 0.3542358307245399 23.50311760321558, 5.040680293493118 17.176712196147065 C9.727124756261695 10.850306789078552, 22.815974077996515 3.6591396529122093, 27.939818353024034 0.9809472454823478 C33.06366262805155 -1.6972451619475137, 35.55164857986968 0.3858641209522121, 35.78374594365824 1.1075577515678958" stroke="#000000" stroke-width="1.5" fill="none" stroke-dasharray="3 6"></path></g><g transform="translate(224.5 205.5) rotate(0 28.5 26)"><text x="28.5" y="18" font-family="Virgil, Segoe UI Emoji" font-size="20px" fill="#000000" text-anchor="middle" style="white-space: pre;" direction="ltr">Data</text><text x="28.5" y="44" font-family="Virgil, Segoe UI Emoji" font-size="20px" fill="#000000" text-anchor="middle" style="white-space: pre;" direction="ltr">Cap</text></g><g><g transform="translate(179 164.5) rotate(0 19.64405038394034 16.75608318410815)"><path d="M-0.6842698272317648 0.8111696954816578 C5.895687113578122 6.179326196139057, 33.15659402844807 27.683680549884837, 39.972370595112444 32.70099667273462" stroke="#000000" stroke-width="1.5" fill="none" stroke-dasharray="3 6"></path></g></g><g><g transform="translate(304 227.5) rotate(0 73.1417636994272 -34.024464947357785)"><path d="M1.191404265537858 -0.9246982220560311 C25.33774062631031 -12.222227375085156, 120.82186900215845 -56.26139680979153, 145.09212313331665 -67.12423167265952" stroke="#000000" stroke-width="1.5" fill="none" stroke-dasharray="3 6"></path></g><g transform="translate(304 227.5) rotate(0 73.1417636994272 -34.024464947357785)"><path d="M122.14937519773666 -47.61422508998914 C130.17001768589566 -51.64073492197794, 138.67654887134827 -58.54077000300402, 143.59784593358637 -65.37893985286355" stroke="#000000" stroke-width="1.5" fill="none" stroke-dasharray="3 4"></path></g><g transform="translate(304 227.5) rotate(0 73.1417636994272 -34.024464947357785)"><path d="M113.64298425695432 -66.28937744675497 C124.47017587292217 -64.46459258293423, 135.6803960544405 -65.42887838105759, 143.59784593358637 -65.37893985286355" stroke="#000000" stroke-width="1.5" fill="none" stroke-dasharray="3 4"></path></g></g><g transform="translate(569.5 123) rotate(0 41.5 35.5)"><path d="M54.733376521958114 1.4624952280813233 C62.17488278550018 2.9227149210484678, 70.76850364299983 8.80250494762219, 75.59533851896956 14.6329128367471 C80.42217339493928 20.46332072587201, 83.81729614701192 29.25588349825622, 83.69438577777649 36.44494256283078 C83.57147540854106 43.63400162740535, 79.87235158549426 52.10274968147098, 74.85787630355702 57.76726722419447 C69.84340102161978 63.43178476691796, 61.41205600558337 68.60464508120512, 53.60753408615304 70.43204781917171 C45.8030121667227 72.25945055713831, 35.67891707814287 71.36166358903711, 28.030744786975013 68.73168365199399 C20.382572495807157 66.10170371495087, 12.386921514666696 60.422618882708264, 7.718500339145905 54.65216819691301 C3.0500791636251146 48.881717511117756, -0.38187109468524244 41.17977324940505, 0.02021773385027359 34.10897953722248 C0.4223065623857896 27.03818582503991, 5.100439686581276 17.834087268467044, 10.131033310359001 12.227405923817592 C15.161626934136727 6.620724579168139, 21.740258454002408 1.6908972797473936, 30.203779476516623 0.46889146932576153 C38.66730049903084 -0.7531143410958705, 54.80849032714831 3.516127130700748, 60.912159445444274 4.8953710612878005 C67.01582856374023 6.274614991874853, 67.09112103801874 8.454261069503094, 66.82579418629238 8.744355052848075" stroke="#000000" stroke-width="1.5" fill="none" stroke-dasharray="3 6"></path></g><g transform="translate(583 134) rotate(0 28.5 26)"><text x="28.5" y="18" font-family="Virgil, Segoe UI Emoji" font-size="20px" fill="#000000" text-anchor="middle" style="white-space: pre;" direction="ltr">Data</text><text x="28.5" y="44" font-family="Virgil, Segoe UI Emoji" font-size="20px" fill="#000000" text-anchor="middle" style="white-space: pre;" direction="ltr">Cap</text></g></svg>